G04 Layer_Physical_Order=2*
G04 Layer_Color=16711680*
%FSLAX23Y23*%
%MOIN*%
G70*
G01*
G75*
%ADD13C,0.079*%
%ADD14R,0.591X0.315*%
%ADD15R,0.315X0.591*%
%ADD16C,0.197*%
%ADD17C,0.065*%
%ADD18R,0.065X0.065*%
%ADD19C,0.025*%
%ADD20C,0.020*%
G36*
X3742Y2885D02*
X3176D01*
Y3286D01*
X3176Y3287D01*
X3176Y3288D01*
X3175Y3291D01*
X3175Y3294D01*
X3175Y3295D01*
X3175Y3296D01*
X3173Y3299D01*
X3172Y3302D01*
X3171Y3302D01*
X3171Y3303D01*
X3169Y3305D01*
X3167Y3308D01*
X3167Y3308D01*
X3166Y3309D01*
X3163Y3311D01*
X3161Y3313D01*
X3160Y3313D01*
X3160Y3313D01*
X3157Y3314D01*
X3154Y3316D01*
X3153Y3316D01*
X3152Y3316D01*
X3148Y3317D01*
X3144Y3317D01*
X3141Y3318D01*
X3018D01*
Y4007D01*
X3742D01*
Y2885D01*
D02*
G37*
G36*
X2411Y2761D02*
X2411Y2759D01*
X2411Y2758D01*
X2411Y2757D01*
X2411Y2755D01*
X2411Y2754D01*
X2412Y2753D01*
X2412Y2753D01*
X2412Y2752D01*
X2412Y2750D01*
X2413Y2749D01*
X2414Y2747D01*
X2415Y2745D01*
X2416Y2743D01*
X2417Y2742D01*
X2418Y2740D01*
X2420Y2739D01*
X2421Y2737D01*
X2423Y2736D01*
X2424Y2735D01*
X2426Y2734D01*
X2428Y2733D01*
X2430Y2732D01*
X2431Y2731D01*
X2433Y2731D01*
X2434Y2731D01*
X2435Y2731D01*
X2435Y2730D01*
X2436Y2730D01*
X2438Y2730D01*
X2439Y2730D01*
X2440Y2730D01*
X2442Y2730D01*
X2556D01*
Y2108D01*
X1843D01*
Y3202D01*
X2411D01*
Y2761D01*
D02*
G37*
G36*
X2988Y3303D02*
X3004Y3287D01*
X3146D01*
Y3276D01*
X3144D01*
Y2982D01*
X3139Y2982D01*
X3139Y2982D01*
X3034D01*
Y2877D01*
X3139D01*
Y2915D01*
X3144Y2918D01*
X3146Y2916D01*
X3146Y2916D01*
Y2854D01*
X3752D01*
Y2098D01*
X2587D01*
Y2760D01*
X2441D01*
Y3232D01*
X1833D01*
Y4017D01*
X2988D01*
Y3303D01*
D02*
G37*
%LPC*%
G36*
X3583Y3932D02*
X3565Y3930D01*
X3547Y3924D01*
X3531Y3916D01*
X3517Y3904D01*
X3505Y3890D01*
X3497Y3874D01*
X3492Y3857D01*
X3490Y3839D01*
X3492Y3820D01*
X3497Y3803D01*
X3505Y3787D01*
X3517Y3773D01*
X3531Y3761D01*
X3547Y3753D01*
X3565Y3747D01*
X3583Y3746D01*
X3601Y3747D01*
X3618Y3753D01*
X3634Y3761D01*
X3648Y3773D01*
X3660Y3787D01*
X3669Y3803D01*
X3674Y3820D01*
X3676Y3839D01*
X3674Y3857D01*
X3669Y3874D01*
X3660Y3890D01*
X3648Y3904D01*
X3634Y3916D01*
X3618Y3924D01*
X3601Y3930D01*
X3583Y3932D01*
D02*
G37*
G36*
X2008Y3921D02*
X1992Y3920D01*
X1976Y3915D01*
X1962Y3908D01*
X1949Y3897D01*
X1939Y3885D01*
X1931Y3870D01*
X1927Y3855D01*
X1925Y3839D01*
X1927Y3822D01*
X1931Y3807D01*
X1939Y3793D01*
X1949Y3780D01*
X1962Y3770D01*
X1976Y3762D01*
X1992Y3757D01*
X2008Y3756D01*
X2024Y3757D01*
X2040Y3762D01*
X2054Y3770D01*
X2066Y3780D01*
X2077Y3793D01*
X2084Y3807D01*
X2089Y3822D01*
X2091Y3839D01*
X2089Y3855D01*
X2084Y3870D01*
X2077Y3885D01*
X2066Y3897D01*
X2054Y3908D01*
X2040Y3915D01*
X2024Y3920D01*
X2008Y3921D01*
D02*
G37*
G36*
X2008Y2366D02*
X1990Y2364D01*
X1972Y2359D01*
X1956Y2350D01*
X1942Y2338D01*
X1931Y2324D01*
X1922Y2308D01*
X1917Y2291D01*
X1915Y2273D01*
X1917Y2255D01*
X1922Y2237D01*
X1931Y2221D01*
X1942Y2207D01*
X1956Y2195D01*
X1972Y2187D01*
X1990Y2181D01*
X2008Y2180D01*
X2026Y2181D01*
X2043Y2187D01*
X2060Y2195D01*
X2074Y2207D01*
X2085Y2221D01*
X2094Y2237D01*
X2099Y2255D01*
X2101Y2273D01*
X2099Y2291D01*
X2094Y2308D01*
X2085Y2324D01*
X2074Y2338D01*
X2060Y2350D01*
X2043Y2359D01*
X2026Y2364D01*
X2008Y2366D01*
D02*
G37*
G36*
X2556Y3265D02*
X2451D01*
Y3160D01*
X2556D01*
Y3265D01*
D02*
G37*
G36*
X3583Y2355D02*
X3567Y2353D01*
X3551Y2348D01*
X3537Y2341D01*
X3524Y2330D01*
X3514Y2318D01*
X3506Y2303D01*
X3501Y2288D01*
X3500Y2272D01*
X3501Y2255D01*
X3506Y2240D01*
X3514Y2226D01*
X3524Y2213D01*
X3537Y2203D01*
X3551Y2195D01*
X3567Y2190D01*
X3583Y2189D01*
X3599Y2190D01*
X3614Y2195D01*
X3629Y2203D01*
X3641Y2213D01*
X3652Y2226D01*
X3659Y2240D01*
X3664Y2255D01*
X3666Y2272D01*
X3664Y2288D01*
X3659Y2303D01*
X3652Y2318D01*
X3641Y2330D01*
X3629Y2341D01*
X3614Y2348D01*
X3599Y2353D01*
X3583Y2355D01*
D02*
G37*
%LPD*%
D13*
X2008Y2273D02*
D03*
X2008Y3839D02*
D03*
X3583D02*
D03*
X3583Y2272D02*
D03*
D14*
X2119Y3016D02*
D03*
Y3508D02*
D03*
X3459Y3098D02*
D03*
Y2606D02*
D03*
D15*
X3252Y3730D02*
D03*
X2760D02*
D03*
X2327Y2385D02*
D03*
X2819D02*
D03*
D16*
X2366Y3811D02*
D03*
X2028Y2594D02*
D03*
D17*
X2504Y3313D02*
D03*
X3087Y2829D02*
D03*
X2173Y3980D02*
D03*
X2252D02*
D03*
X2331D02*
D03*
X2409D02*
D03*
X2488D02*
D03*
X2539Y3898D02*
D03*
Y3819D02*
D03*
Y3740D02*
D03*
X3118Y2197D02*
D03*
X3197D02*
D03*
X3276D02*
D03*
X3354D02*
D03*
Y2276D02*
D03*
X3276D02*
D03*
X3197D02*
D03*
X3118D02*
D03*
X3354Y2354D02*
D03*
X3276D02*
D03*
X3197D02*
D03*
X3118D02*
D03*
X3701Y3646D02*
D03*
Y3567D02*
D03*
Y3488D02*
D03*
Y3409D02*
D03*
Y3331D02*
D03*
X3618Y3646D02*
D03*
Y3567D02*
D03*
Y3488D02*
D03*
Y3409D02*
D03*
Y3331D02*
D03*
X3535D02*
D03*
Y3409D02*
D03*
Y3488D02*
D03*
Y3567D02*
D03*
Y3646D02*
D03*
X1878Y2673D02*
D03*
Y2594D02*
D03*
Y2516D02*
D03*
D18*
X2504Y3213D02*
D03*
X3087Y2929D02*
D03*
D19*
X2382Y3457D02*
D03*
Y3508D02*
D03*
Y3559D02*
D03*
X2335D02*
D03*
Y3508D02*
D03*
Y3457D02*
D03*
X2287Y3559D02*
D03*
Y3508D02*
D03*
Y3457D02*
D03*
X2240Y3559D02*
D03*
Y3508D02*
D03*
Y3457D02*
D03*
X1858D02*
D03*
Y3508D02*
D03*
Y3559D02*
D03*
X1906Y3457D02*
D03*
Y3508D02*
D03*
Y3559D02*
D03*
X1953Y3457D02*
D03*
Y3508D02*
D03*
Y3559D02*
D03*
X2000D02*
D03*
Y3508D02*
D03*
Y3457D02*
D03*
X2051D02*
D03*
Y3508D02*
D03*
Y3559D02*
D03*
X2098Y3457D02*
D03*
Y3508D02*
D03*
Y3559D02*
D03*
X2146Y3457D02*
D03*
Y3508D02*
D03*
Y3559D02*
D03*
X2193D02*
D03*
Y3508D02*
D03*
Y3457D02*
D03*
X2382Y2965D02*
D03*
Y3016D02*
D03*
Y3067D02*
D03*
X2335D02*
D03*
Y3016D02*
D03*
Y2965D02*
D03*
X2287Y3067D02*
D03*
Y3016D02*
D03*
Y2965D02*
D03*
X2240Y3067D02*
D03*
Y3016D02*
D03*
Y2965D02*
D03*
X1858D02*
D03*
Y3016D02*
D03*
Y3067D02*
D03*
X1906Y2965D02*
D03*
Y3016D02*
D03*
Y3067D02*
D03*
X1953Y2965D02*
D03*
Y3016D02*
D03*
Y3067D02*
D03*
X2000D02*
D03*
Y3016D02*
D03*
Y2965D02*
D03*
X2051D02*
D03*
Y3016D02*
D03*
Y3067D02*
D03*
X2098Y2965D02*
D03*
Y3016D02*
D03*
Y3067D02*
D03*
X2146Y2965D02*
D03*
Y3016D02*
D03*
Y3067D02*
D03*
X2193D02*
D03*
Y3016D02*
D03*
Y2965D02*
D03*
X2811Y3992D02*
D03*
X2760D02*
D03*
X2709D02*
D03*
Y3945D02*
D03*
X2760D02*
D03*
X2811D02*
D03*
X2709Y3898D02*
D03*
X2760D02*
D03*
X2811D02*
D03*
X2709Y3850D02*
D03*
X2760D02*
D03*
X2811D02*
D03*
Y3469D02*
D03*
X2760D02*
D03*
X2709D02*
D03*
X2811Y3516D02*
D03*
X2760D02*
D03*
X2709D02*
D03*
X2811Y3563D02*
D03*
X2760D02*
D03*
X2709D02*
D03*
Y3610D02*
D03*
X2760D02*
D03*
X2811D02*
D03*
Y3661D02*
D03*
X2760D02*
D03*
X2709D02*
D03*
X2811Y3709D02*
D03*
X2760D02*
D03*
X2709D02*
D03*
X2811Y3756D02*
D03*
X2760D02*
D03*
X2709D02*
D03*
Y3803D02*
D03*
X2760D02*
D03*
X2811D02*
D03*
X3303Y3992D02*
D03*
X3252D02*
D03*
X3201D02*
D03*
Y3945D02*
D03*
X3252D02*
D03*
X3303D02*
D03*
X3201Y3898D02*
D03*
X3252D02*
D03*
X3303D02*
D03*
X3201Y3850D02*
D03*
X3252D02*
D03*
X3303D02*
D03*
Y3469D02*
D03*
X3252D02*
D03*
X3201D02*
D03*
X3303Y3516D02*
D03*
X3252D02*
D03*
X3201D02*
D03*
X3303Y3563D02*
D03*
X3252D02*
D03*
X3201D02*
D03*
Y3610D02*
D03*
X3252D02*
D03*
X3303D02*
D03*
Y3661D02*
D03*
X3252D02*
D03*
X3201D02*
D03*
X3303Y3709D02*
D03*
X3252D02*
D03*
X3201D02*
D03*
X3303Y3756D02*
D03*
X3252D02*
D03*
X3201D02*
D03*
Y3803D02*
D03*
X3252D02*
D03*
X3303D02*
D03*
X3197Y2657D02*
D03*
Y2606D02*
D03*
Y2555D02*
D03*
X3244D02*
D03*
Y2606D02*
D03*
Y2657D02*
D03*
X3291Y2555D02*
D03*
Y2606D02*
D03*
Y2657D02*
D03*
X3339Y2555D02*
D03*
Y2606D02*
D03*
Y2657D02*
D03*
X3720D02*
D03*
Y2606D02*
D03*
Y2555D02*
D03*
X3673Y2657D02*
D03*
Y2606D02*
D03*
Y2555D02*
D03*
X3626Y2657D02*
D03*
Y2606D02*
D03*
Y2555D02*
D03*
X3579D02*
D03*
Y2606D02*
D03*
Y2657D02*
D03*
X3528D02*
D03*
Y2606D02*
D03*
Y2555D02*
D03*
X3480Y2657D02*
D03*
Y2606D02*
D03*
Y2555D02*
D03*
X3433Y2657D02*
D03*
Y2606D02*
D03*
Y2555D02*
D03*
X3386D02*
D03*
Y2606D02*
D03*
Y2657D02*
D03*
X3197Y3150D02*
D03*
Y3098D02*
D03*
Y3047D02*
D03*
X3244D02*
D03*
Y3098D02*
D03*
Y3150D02*
D03*
X3291Y3047D02*
D03*
Y3098D02*
D03*
Y3150D02*
D03*
X3339Y3047D02*
D03*
Y3098D02*
D03*
Y3150D02*
D03*
X3720D02*
D03*
Y3098D02*
D03*
Y3047D02*
D03*
X3673Y3150D02*
D03*
Y3098D02*
D03*
Y3047D02*
D03*
X3626Y3150D02*
D03*
Y3098D02*
D03*
Y3047D02*
D03*
X3579D02*
D03*
Y3098D02*
D03*
Y3150D02*
D03*
X3528D02*
D03*
Y3098D02*
D03*
Y3047D02*
D03*
X3480Y3150D02*
D03*
Y3098D02*
D03*
Y3047D02*
D03*
X3433Y3150D02*
D03*
Y3098D02*
D03*
Y3047D02*
D03*
X3386D02*
D03*
Y3098D02*
D03*
Y3150D02*
D03*
X2768Y2122D02*
D03*
X2819D02*
D03*
X2870D02*
D03*
Y2169D02*
D03*
X2819D02*
D03*
X2768D02*
D03*
X2870Y2217D02*
D03*
X2819D02*
D03*
X2768D02*
D03*
X2870Y2264D02*
D03*
X2819D02*
D03*
X2768D02*
D03*
Y2646D02*
D03*
X2819D02*
D03*
X2870D02*
D03*
X2768Y2598D02*
D03*
X2819D02*
D03*
X2870D02*
D03*
X2768Y2551D02*
D03*
X2819D02*
D03*
X2870D02*
D03*
Y2504D02*
D03*
X2819D02*
D03*
X2768D02*
D03*
Y2453D02*
D03*
X2819D02*
D03*
X2870D02*
D03*
X2768Y2406D02*
D03*
X2819D02*
D03*
X2870D02*
D03*
X2768Y2358D02*
D03*
X2819D02*
D03*
X2870D02*
D03*
Y2311D02*
D03*
X2819D02*
D03*
X2768D02*
D03*
X2276Y2122D02*
D03*
X2327D02*
D03*
X2378D02*
D03*
Y2169D02*
D03*
X2327D02*
D03*
X2276D02*
D03*
X2378Y2217D02*
D03*
X2327D02*
D03*
X2276D02*
D03*
X2378Y2264D02*
D03*
X2327D02*
D03*
X2276D02*
D03*
Y2646D02*
D03*
X2327D02*
D03*
X2378D02*
D03*
X2276Y2598D02*
D03*
X2327D02*
D03*
X2378D02*
D03*
X2276Y2551D02*
D03*
X2327D02*
D03*
X2378D02*
D03*
Y2504D02*
D03*
X2327D02*
D03*
X2276D02*
D03*
Y2453D02*
D03*
X2327D02*
D03*
X2378D02*
D03*
X2276Y2406D02*
D03*
X2327D02*
D03*
X2378D02*
D03*
X2276Y2358D02*
D03*
X2327D02*
D03*
X2378D02*
D03*
Y2311D02*
D03*
X2327D02*
D03*
X2276D02*
D03*
D20*
X2256Y3618D02*
D03*
X2217D02*
D03*
X2177D02*
D03*
X2138D02*
D03*
X2098D02*
D03*
X2059D02*
D03*
X2020D02*
D03*
X1980D02*
D03*
Y3402D02*
D03*
X2020D02*
D03*
X2059D02*
D03*
X2098D02*
D03*
X2138D02*
D03*
X2177D02*
D03*
X2217D02*
D03*
X2256D02*
D03*
Y3126D02*
D03*
X2217D02*
D03*
X2177D02*
D03*
X2138D02*
D03*
X2098D02*
D03*
X2059D02*
D03*
X2020D02*
D03*
X1980D02*
D03*
Y2909D02*
D03*
X2020D02*
D03*
X2059D02*
D03*
X2098D02*
D03*
X2138D02*
D03*
X2177D02*
D03*
X2217D02*
D03*
X2256D02*
D03*
X2650Y3866D02*
D03*
Y3827D02*
D03*
Y3787D02*
D03*
Y3748D02*
D03*
Y3709D02*
D03*
Y3669D02*
D03*
Y3630D02*
D03*
Y3591D02*
D03*
X2866D02*
D03*
Y3630D02*
D03*
Y3669D02*
D03*
Y3709D02*
D03*
Y3748D02*
D03*
Y3787D02*
D03*
Y3827D02*
D03*
Y3866D02*
D03*
X3142D02*
D03*
Y3827D02*
D03*
Y3787D02*
D03*
Y3748D02*
D03*
Y3709D02*
D03*
Y3669D02*
D03*
Y3630D02*
D03*
Y3591D02*
D03*
X3358D02*
D03*
Y3630D02*
D03*
Y3669D02*
D03*
Y3709D02*
D03*
Y3748D02*
D03*
Y3787D02*
D03*
Y3827D02*
D03*
Y3866D02*
D03*
X3323Y2496D02*
D03*
X3362D02*
D03*
X3402D02*
D03*
X3441D02*
D03*
X3480D02*
D03*
X3520D02*
D03*
X3559D02*
D03*
X3598D02*
D03*
Y2713D02*
D03*
X3559D02*
D03*
X3520D02*
D03*
X3480D02*
D03*
X3441D02*
D03*
X3402D02*
D03*
X3362D02*
D03*
X3323D02*
D03*
Y2988D02*
D03*
X3362D02*
D03*
X3402D02*
D03*
X3441D02*
D03*
X3480D02*
D03*
X3520D02*
D03*
X3559D02*
D03*
X3598D02*
D03*
Y3205D02*
D03*
X3559D02*
D03*
X3520D02*
D03*
X3480D02*
D03*
X3441D02*
D03*
X3402D02*
D03*
X3362D02*
D03*
X3323D02*
D03*
X2929Y2248D02*
D03*
Y2287D02*
D03*
Y2327D02*
D03*
Y2366D02*
D03*
Y2406D02*
D03*
Y2445D02*
D03*
Y2484D02*
D03*
Y2524D02*
D03*
X2713D02*
D03*
Y2484D02*
D03*
Y2445D02*
D03*
Y2406D02*
D03*
Y2366D02*
D03*
Y2327D02*
D03*
Y2287D02*
D03*
Y2248D02*
D03*
X2437D02*
D03*
Y2287D02*
D03*
Y2327D02*
D03*
Y2366D02*
D03*
Y2406D02*
D03*
Y2445D02*
D03*
Y2484D02*
D03*
Y2524D02*
D03*
X2220D02*
D03*
Y2484D02*
D03*
Y2445D02*
D03*
Y2406D02*
D03*
Y2366D02*
D03*
Y2327D02*
D03*
Y2287D02*
D03*
Y2248D02*
D03*
M02*
