G04 Layer_Color=8388736*
%FSLAX23Y23*%
%MOIN*%
G70*
G01*
G75*
%ADD24R,0.059X0.071*%
%ADD25R,0.085X0.085*%
%ADD26C,0.085*%
%ADD27C,0.217*%
%ADD28R,0.335X0.611*%
%ADD29R,0.611X0.335*%
%ADD30C,0.099*%
%ADD31C,0.040*%
%ADD32C,0.045*%
D24*
X3043Y3374D02*
D03*
X3106D02*
D03*
X2909D02*
D03*
X2846D02*
D03*
D25*
X3087Y2929D02*
D03*
X2504Y3213D02*
D03*
D26*
X3087Y2829D02*
D03*
X2504Y3313D02*
D03*
X1878Y2516D02*
D03*
Y2594D02*
D03*
Y2673D02*
D03*
X3535Y3646D02*
D03*
Y3567D02*
D03*
Y3488D02*
D03*
Y3409D02*
D03*
Y3331D02*
D03*
X3618D02*
D03*
Y3409D02*
D03*
Y3488D02*
D03*
Y3567D02*
D03*
Y3646D02*
D03*
X3701Y3331D02*
D03*
Y3409D02*
D03*
Y3488D02*
D03*
Y3567D02*
D03*
Y3646D02*
D03*
X3118Y2354D02*
D03*
X3197D02*
D03*
X3276D02*
D03*
X3354D02*
D03*
X3118Y2276D02*
D03*
X3197D02*
D03*
X3276D02*
D03*
X3354D02*
D03*
Y2197D02*
D03*
X3276D02*
D03*
X3197D02*
D03*
X3118D02*
D03*
X2539Y3740D02*
D03*
Y3819D02*
D03*
Y3898D02*
D03*
X2488Y3980D02*
D03*
X2409D02*
D03*
X2331D02*
D03*
X2252D02*
D03*
X2173D02*
D03*
D27*
X2028Y2594D02*
D03*
X2366Y3811D02*
D03*
D28*
X2819Y2385D02*
D03*
X2327D02*
D03*
X2760Y3730D02*
D03*
X3252D02*
D03*
D29*
X3459Y2606D02*
D03*
Y3098D02*
D03*
X2119Y3508D02*
D03*
Y3016D02*
D03*
D30*
X3583Y2272D02*
D03*
X3583Y3839D02*
D03*
X2008D02*
D03*
X2008Y2273D02*
D03*
D31*
X2220Y2248D02*
D03*
Y2287D02*
D03*
Y2327D02*
D03*
Y2366D02*
D03*
Y2406D02*
D03*
Y2445D02*
D03*
Y2484D02*
D03*
Y2524D02*
D03*
X2437D02*
D03*
Y2484D02*
D03*
Y2445D02*
D03*
Y2406D02*
D03*
Y2366D02*
D03*
Y2327D02*
D03*
Y2287D02*
D03*
Y2248D02*
D03*
X2713D02*
D03*
Y2287D02*
D03*
Y2327D02*
D03*
Y2366D02*
D03*
Y2406D02*
D03*
Y2445D02*
D03*
Y2484D02*
D03*
Y2524D02*
D03*
X2929D02*
D03*
Y2484D02*
D03*
Y2445D02*
D03*
Y2406D02*
D03*
Y2366D02*
D03*
Y2327D02*
D03*
Y2287D02*
D03*
Y2248D02*
D03*
X3323Y3205D02*
D03*
X3362D02*
D03*
X3402D02*
D03*
X3441D02*
D03*
X3480D02*
D03*
X3520D02*
D03*
X3559D02*
D03*
X3598D02*
D03*
Y2988D02*
D03*
X3559D02*
D03*
X3520D02*
D03*
X3480D02*
D03*
X3441D02*
D03*
X3402D02*
D03*
X3362D02*
D03*
X3323D02*
D03*
Y2713D02*
D03*
X3362D02*
D03*
X3402D02*
D03*
X3441D02*
D03*
X3480D02*
D03*
X3520D02*
D03*
X3559D02*
D03*
X3598D02*
D03*
Y2496D02*
D03*
X3559D02*
D03*
X3520D02*
D03*
X3480D02*
D03*
X3441D02*
D03*
X3402D02*
D03*
X3362D02*
D03*
X3323D02*
D03*
X3358Y3866D02*
D03*
Y3827D02*
D03*
Y3787D02*
D03*
Y3748D02*
D03*
Y3709D02*
D03*
Y3669D02*
D03*
Y3630D02*
D03*
Y3591D02*
D03*
X3142D02*
D03*
Y3630D02*
D03*
Y3669D02*
D03*
Y3709D02*
D03*
Y3748D02*
D03*
Y3787D02*
D03*
Y3827D02*
D03*
Y3866D02*
D03*
X2866D02*
D03*
Y3827D02*
D03*
Y3787D02*
D03*
Y3748D02*
D03*
Y3709D02*
D03*
Y3669D02*
D03*
Y3630D02*
D03*
Y3591D02*
D03*
X2650D02*
D03*
Y3630D02*
D03*
Y3669D02*
D03*
Y3709D02*
D03*
Y3748D02*
D03*
Y3787D02*
D03*
Y3827D02*
D03*
Y3866D02*
D03*
X2256Y2909D02*
D03*
X2217D02*
D03*
X2177D02*
D03*
X2138D02*
D03*
X2098D02*
D03*
X2059D02*
D03*
X2020D02*
D03*
X1980D02*
D03*
Y3126D02*
D03*
X2020D02*
D03*
X2059D02*
D03*
X2098D02*
D03*
X2138D02*
D03*
X2177D02*
D03*
X2217D02*
D03*
X2256D02*
D03*
Y3402D02*
D03*
X2217D02*
D03*
X2177D02*
D03*
X2138D02*
D03*
X2098D02*
D03*
X2059D02*
D03*
X2020D02*
D03*
X1980D02*
D03*
Y3618D02*
D03*
X2020D02*
D03*
X2059D02*
D03*
X2098D02*
D03*
X2138D02*
D03*
X2177D02*
D03*
X2217D02*
D03*
X2256D02*
D03*
D32*
X2276Y2311D02*
D03*
X2327D02*
D03*
X2378D02*
D03*
Y2358D02*
D03*
X2327D02*
D03*
X2276D02*
D03*
X2378Y2406D02*
D03*
X2327D02*
D03*
X2276D02*
D03*
X2378Y2453D02*
D03*
X2327D02*
D03*
X2276D02*
D03*
Y2504D02*
D03*
X2327D02*
D03*
X2378D02*
D03*
Y2551D02*
D03*
X2327D02*
D03*
X2276D02*
D03*
X2378Y2598D02*
D03*
X2327D02*
D03*
X2276D02*
D03*
X2378Y2646D02*
D03*
X2327D02*
D03*
X2276D02*
D03*
Y2264D02*
D03*
X2327D02*
D03*
X2378D02*
D03*
X2276Y2217D02*
D03*
X2327D02*
D03*
X2378D02*
D03*
X2276Y2169D02*
D03*
X2327D02*
D03*
X2378D02*
D03*
Y2122D02*
D03*
X2327D02*
D03*
X2276D02*
D03*
X2768Y2311D02*
D03*
X2819D02*
D03*
X2870D02*
D03*
Y2358D02*
D03*
X2819D02*
D03*
X2768D02*
D03*
X2870Y2406D02*
D03*
X2819D02*
D03*
X2768D02*
D03*
X2870Y2453D02*
D03*
X2819D02*
D03*
X2768D02*
D03*
Y2504D02*
D03*
X2819D02*
D03*
X2870D02*
D03*
Y2551D02*
D03*
X2819D02*
D03*
X2768D02*
D03*
X2870Y2598D02*
D03*
X2819D02*
D03*
X2768D02*
D03*
X2870Y2646D02*
D03*
X2819D02*
D03*
X2768D02*
D03*
Y2264D02*
D03*
X2819D02*
D03*
X2870D02*
D03*
X2768Y2217D02*
D03*
X2819D02*
D03*
X2870D02*
D03*
X2768Y2169D02*
D03*
X2819D02*
D03*
X2870D02*
D03*
Y2122D02*
D03*
X2819D02*
D03*
X2768D02*
D03*
X3386Y3150D02*
D03*
Y3098D02*
D03*
Y3047D02*
D03*
X3433D02*
D03*
Y3098D02*
D03*
Y3150D02*
D03*
X3480Y3047D02*
D03*
Y3098D02*
D03*
Y3150D02*
D03*
X3528Y3047D02*
D03*
Y3098D02*
D03*
Y3150D02*
D03*
X3579D02*
D03*
Y3098D02*
D03*
Y3047D02*
D03*
X3626D02*
D03*
Y3098D02*
D03*
Y3150D02*
D03*
X3673Y3047D02*
D03*
Y3098D02*
D03*
Y3150D02*
D03*
X3720Y3047D02*
D03*
Y3098D02*
D03*
Y3150D02*
D03*
X3339D02*
D03*
Y3098D02*
D03*
Y3047D02*
D03*
X3291Y3150D02*
D03*
Y3098D02*
D03*
Y3047D02*
D03*
X3244Y3150D02*
D03*
Y3098D02*
D03*
Y3047D02*
D03*
X3197D02*
D03*
Y3098D02*
D03*
Y3150D02*
D03*
X3386Y2657D02*
D03*
Y2606D02*
D03*
Y2555D02*
D03*
X3433D02*
D03*
Y2606D02*
D03*
Y2657D02*
D03*
X3480Y2555D02*
D03*
Y2606D02*
D03*
Y2657D02*
D03*
X3528Y2555D02*
D03*
Y2606D02*
D03*
Y2657D02*
D03*
X3579D02*
D03*
Y2606D02*
D03*
Y2555D02*
D03*
X3626D02*
D03*
Y2606D02*
D03*
Y2657D02*
D03*
X3673Y2555D02*
D03*
Y2606D02*
D03*
Y2657D02*
D03*
X3720Y2555D02*
D03*
Y2606D02*
D03*
Y2657D02*
D03*
X3339D02*
D03*
Y2606D02*
D03*
Y2555D02*
D03*
X3291Y2657D02*
D03*
Y2606D02*
D03*
Y2555D02*
D03*
X3244Y2657D02*
D03*
Y2606D02*
D03*
Y2555D02*
D03*
X3197D02*
D03*
Y2606D02*
D03*
Y2657D02*
D03*
X3303Y3803D02*
D03*
X3252D02*
D03*
X3201D02*
D03*
Y3756D02*
D03*
X3252D02*
D03*
X3303D02*
D03*
X3201Y3709D02*
D03*
X3252D02*
D03*
X3303D02*
D03*
X3201Y3661D02*
D03*
X3252D02*
D03*
X3303D02*
D03*
Y3610D02*
D03*
X3252D02*
D03*
X3201D02*
D03*
Y3563D02*
D03*
X3252D02*
D03*
X3303D02*
D03*
X3201Y3516D02*
D03*
X3252D02*
D03*
X3303D02*
D03*
X3201Y3469D02*
D03*
X3252D02*
D03*
X3303D02*
D03*
Y3850D02*
D03*
X3252D02*
D03*
X3201D02*
D03*
X3303Y3898D02*
D03*
X3252D02*
D03*
X3201D02*
D03*
X3303Y3945D02*
D03*
X3252D02*
D03*
X3201D02*
D03*
Y3992D02*
D03*
X3252D02*
D03*
X3303D02*
D03*
X2811Y3803D02*
D03*
X2760D02*
D03*
X2709D02*
D03*
Y3756D02*
D03*
X2760D02*
D03*
X2811D02*
D03*
X2709Y3709D02*
D03*
X2760D02*
D03*
X2811D02*
D03*
X2709Y3661D02*
D03*
X2760D02*
D03*
X2811D02*
D03*
Y3610D02*
D03*
X2760D02*
D03*
X2709D02*
D03*
Y3563D02*
D03*
X2760D02*
D03*
X2811D02*
D03*
X2709Y3516D02*
D03*
X2760D02*
D03*
X2811D02*
D03*
X2709Y3469D02*
D03*
X2760D02*
D03*
X2811D02*
D03*
Y3850D02*
D03*
X2760D02*
D03*
X2709D02*
D03*
X2811Y3898D02*
D03*
X2760D02*
D03*
X2709D02*
D03*
X2811Y3945D02*
D03*
X2760D02*
D03*
X2709D02*
D03*
Y3992D02*
D03*
X2760D02*
D03*
X2811D02*
D03*
X2193Y2965D02*
D03*
Y3016D02*
D03*
Y3067D02*
D03*
X2146D02*
D03*
Y3016D02*
D03*
Y2965D02*
D03*
X2098Y3067D02*
D03*
Y3016D02*
D03*
Y2965D02*
D03*
X2051Y3067D02*
D03*
Y3016D02*
D03*
Y2965D02*
D03*
X2000D02*
D03*
Y3016D02*
D03*
Y3067D02*
D03*
X1953D02*
D03*
Y3016D02*
D03*
Y2965D02*
D03*
X1906Y3067D02*
D03*
Y3016D02*
D03*
Y2965D02*
D03*
X1858Y3067D02*
D03*
Y3016D02*
D03*
Y2965D02*
D03*
X2240D02*
D03*
Y3016D02*
D03*
Y3067D02*
D03*
X2287Y2965D02*
D03*
Y3016D02*
D03*
Y3067D02*
D03*
X2335Y2965D02*
D03*
Y3016D02*
D03*
Y3067D02*
D03*
X2382D02*
D03*
Y3016D02*
D03*
Y2965D02*
D03*
X2193Y3457D02*
D03*
Y3508D02*
D03*
Y3559D02*
D03*
X2146D02*
D03*
Y3508D02*
D03*
Y3457D02*
D03*
X2098Y3559D02*
D03*
Y3508D02*
D03*
Y3457D02*
D03*
X2051Y3559D02*
D03*
Y3508D02*
D03*
Y3457D02*
D03*
X2000D02*
D03*
Y3508D02*
D03*
Y3559D02*
D03*
X1953D02*
D03*
Y3508D02*
D03*
Y3457D02*
D03*
X1906Y3559D02*
D03*
Y3508D02*
D03*
Y3457D02*
D03*
X1858Y3559D02*
D03*
Y3508D02*
D03*
Y3457D02*
D03*
X2240D02*
D03*
Y3508D02*
D03*
Y3559D02*
D03*
X2287Y3457D02*
D03*
Y3508D02*
D03*
Y3559D02*
D03*
X2335Y3457D02*
D03*
Y3508D02*
D03*
Y3559D02*
D03*
X2382D02*
D03*
Y3508D02*
D03*
Y3457D02*
D03*
M02*
