G04 Layer_Color=8388736*
%FSLAX23Y23*%
%MOIN*%
G70*
G01*
G75*
%ADD24R,0.059X0.071*%
%ADD25C,0.099*%
%ADD26R,0.611X0.335*%
%ADD27R,0.335X0.611*%
%ADD28C,0.217*%
%ADD29C,0.085*%
%ADD30R,0.085X0.085*%
%ADD31C,0.045*%
%ADD32C,0.040*%
D24*
X2846Y3374D02*
D03*
X2909D02*
D03*
X3106D02*
D03*
X3043D02*
D03*
D25*
X2008Y2273D02*
D03*
X2008Y3839D02*
D03*
X3583D02*
D03*
X3583Y2272D02*
D03*
D26*
X2119Y3016D02*
D03*
Y3508D02*
D03*
X3459Y3098D02*
D03*
Y2606D02*
D03*
D27*
X3252Y3730D02*
D03*
X2760D02*
D03*
X2327Y2385D02*
D03*
X2819D02*
D03*
D28*
X2366Y3811D02*
D03*
X2028Y2594D02*
D03*
D29*
X2504Y3313D02*
D03*
X3087Y2829D02*
D03*
X2173Y3980D02*
D03*
X2252D02*
D03*
X2331D02*
D03*
X2409D02*
D03*
X2488D02*
D03*
X2539Y3898D02*
D03*
Y3819D02*
D03*
Y3740D02*
D03*
X3118Y2197D02*
D03*
X3197D02*
D03*
X3276D02*
D03*
X3354D02*
D03*
Y2276D02*
D03*
X3276D02*
D03*
X3197D02*
D03*
X3118D02*
D03*
X3354Y2354D02*
D03*
X3276D02*
D03*
X3197D02*
D03*
X3118D02*
D03*
X3701Y3646D02*
D03*
Y3567D02*
D03*
Y3488D02*
D03*
Y3409D02*
D03*
Y3331D02*
D03*
X3618Y3646D02*
D03*
Y3567D02*
D03*
Y3488D02*
D03*
Y3409D02*
D03*
Y3331D02*
D03*
X3535D02*
D03*
Y3409D02*
D03*
Y3488D02*
D03*
Y3567D02*
D03*
Y3646D02*
D03*
X1878Y2673D02*
D03*
Y2594D02*
D03*
Y2516D02*
D03*
D30*
X2504Y3213D02*
D03*
X3087Y2929D02*
D03*
D31*
X2382Y3457D02*
D03*
Y3508D02*
D03*
Y3559D02*
D03*
X2335D02*
D03*
Y3508D02*
D03*
Y3457D02*
D03*
X2287Y3559D02*
D03*
Y3508D02*
D03*
Y3457D02*
D03*
X2240Y3559D02*
D03*
Y3508D02*
D03*
Y3457D02*
D03*
X1858D02*
D03*
Y3508D02*
D03*
Y3559D02*
D03*
X1906Y3457D02*
D03*
Y3508D02*
D03*
Y3559D02*
D03*
X1953Y3457D02*
D03*
Y3508D02*
D03*
Y3559D02*
D03*
X2000D02*
D03*
Y3508D02*
D03*
Y3457D02*
D03*
X2051D02*
D03*
Y3508D02*
D03*
Y3559D02*
D03*
X2098Y3457D02*
D03*
Y3508D02*
D03*
Y3559D02*
D03*
X2146Y3457D02*
D03*
Y3508D02*
D03*
Y3559D02*
D03*
X2193D02*
D03*
Y3508D02*
D03*
Y3457D02*
D03*
X2382Y2965D02*
D03*
Y3016D02*
D03*
Y3067D02*
D03*
X2335D02*
D03*
Y3016D02*
D03*
Y2965D02*
D03*
X2287Y3067D02*
D03*
Y3016D02*
D03*
Y2965D02*
D03*
X2240Y3067D02*
D03*
Y3016D02*
D03*
Y2965D02*
D03*
X1858D02*
D03*
Y3016D02*
D03*
Y3067D02*
D03*
X1906Y2965D02*
D03*
Y3016D02*
D03*
Y3067D02*
D03*
X1953Y2965D02*
D03*
Y3016D02*
D03*
Y3067D02*
D03*
X2000D02*
D03*
Y3016D02*
D03*
Y2965D02*
D03*
X2051D02*
D03*
Y3016D02*
D03*
Y3067D02*
D03*
X2098Y2965D02*
D03*
Y3016D02*
D03*
Y3067D02*
D03*
X2146Y2965D02*
D03*
Y3016D02*
D03*
Y3067D02*
D03*
X2193D02*
D03*
Y3016D02*
D03*
Y2965D02*
D03*
X2811Y3992D02*
D03*
X2760D02*
D03*
X2709D02*
D03*
Y3945D02*
D03*
X2760D02*
D03*
X2811D02*
D03*
X2709Y3898D02*
D03*
X2760D02*
D03*
X2811D02*
D03*
X2709Y3850D02*
D03*
X2760D02*
D03*
X2811D02*
D03*
Y3469D02*
D03*
X2760D02*
D03*
X2709D02*
D03*
X2811Y3516D02*
D03*
X2760D02*
D03*
X2709D02*
D03*
X2811Y3563D02*
D03*
X2760D02*
D03*
X2709D02*
D03*
Y3610D02*
D03*
X2760D02*
D03*
X2811D02*
D03*
Y3661D02*
D03*
X2760D02*
D03*
X2709D02*
D03*
X2811Y3709D02*
D03*
X2760D02*
D03*
X2709D02*
D03*
X2811Y3756D02*
D03*
X2760D02*
D03*
X2709D02*
D03*
Y3803D02*
D03*
X2760D02*
D03*
X2811D02*
D03*
X3303Y3992D02*
D03*
X3252D02*
D03*
X3201D02*
D03*
Y3945D02*
D03*
X3252D02*
D03*
X3303D02*
D03*
X3201Y3898D02*
D03*
X3252D02*
D03*
X3303D02*
D03*
X3201Y3850D02*
D03*
X3252D02*
D03*
X3303D02*
D03*
Y3469D02*
D03*
X3252D02*
D03*
X3201D02*
D03*
X3303Y3516D02*
D03*
X3252D02*
D03*
X3201D02*
D03*
X3303Y3563D02*
D03*
X3252D02*
D03*
X3201D02*
D03*
Y3610D02*
D03*
X3252D02*
D03*
X3303D02*
D03*
Y3661D02*
D03*
X3252D02*
D03*
X3201D02*
D03*
X3303Y3709D02*
D03*
X3252D02*
D03*
X3201D02*
D03*
X3303Y3756D02*
D03*
X3252D02*
D03*
X3201D02*
D03*
Y3803D02*
D03*
X3252D02*
D03*
X3303D02*
D03*
X3197Y2657D02*
D03*
Y2606D02*
D03*
Y2555D02*
D03*
X3244D02*
D03*
Y2606D02*
D03*
Y2657D02*
D03*
X3291Y2555D02*
D03*
Y2606D02*
D03*
Y2657D02*
D03*
X3339Y2555D02*
D03*
Y2606D02*
D03*
Y2657D02*
D03*
X3720D02*
D03*
Y2606D02*
D03*
Y2555D02*
D03*
X3673Y2657D02*
D03*
Y2606D02*
D03*
Y2555D02*
D03*
X3626Y2657D02*
D03*
Y2606D02*
D03*
Y2555D02*
D03*
X3579D02*
D03*
Y2606D02*
D03*
Y2657D02*
D03*
X3528D02*
D03*
Y2606D02*
D03*
Y2555D02*
D03*
X3480Y2657D02*
D03*
Y2606D02*
D03*
Y2555D02*
D03*
X3433Y2657D02*
D03*
Y2606D02*
D03*
Y2555D02*
D03*
X3386D02*
D03*
Y2606D02*
D03*
Y2657D02*
D03*
X3197Y3150D02*
D03*
Y3098D02*
D03*
Y3047D02*
D03*
X3244D02*
D03*
Y3098D02*
D03*
Y3150D02*
D03*
X3291Y3047D02*
D03*
Y3098D02*
D03*
Y3150D02*
D03*
X3339Y3047D02*
D03*
Y3098D02*
D03*
Y3150D02*
D03*
X3720D02*
D03*
Y3098D02*
D03*
Y3047D02*
D03*
X3673Y3150D02*
D03*
Y3098D02*
D03*
Y3047D02*
D03*
X3626Y3150D02*
D03*
Y3098D02*
D03*
Y3047D02*
D03*
X3579D02*
D03*
Y3098D02*
D03*
Y3150D02*
D03*
X3528D02*
D03*
Y3098D02*
D03*
Y3047D02*
D03*
X3480Y3150D02*
D03*
Y3098D02*
D03*
Y3047D02*
D03*
X3433Y3150D02*
D03*
Y3098D02*
D03*
Y3047D02*
D03*
X3386D02*
D03*
Y3098D02*
D03*
Y3150D02*
D03*
X2768Y2122D02*
D03*
X2819D02*
D03*
X2870D02*
D03*
Y2169D02*
D03*
X2819D02*
D03*
X2768D02*
D03*
X2870Y2217D02*
D03*
X2819D02*
D03*
X2768D02*
D03*
X2870Y2264D02*
D03*
X2819D02*
D03*
X2768D02*
D03*
Y2646D02*
D03*
X2819D02*
D03*
X2870D02*
D03*
X2768Y2598D02*
D03*
X2819D02*
D03*
X2870D02*
D03*
X2768Y2551D02*
D03*
X2819D02*
D03*
X2870D02*
D03*
Y2504D02*
D03*
X2819D02*
D03*
X2768D02*
D03*
Y2453D02*
D03*
X2819D02*
D03*
X2870D02*
D03*
X2768Y2406D02*
D03*
X2819D02*
D03*
X2870D02*
D03*
X2768Y2358D02*
D03*
X2819D02*
D03*
X2870D02*
D03*
Y2311D02*
D03*
X2819D02*
D03*
X2768D02*
D03*
X2276Y2122D02*
D03*
X2327D02*
D03*
X2378D02*
D03*
Y2169D02*
D03*
X2327D02*
D03*
X2276D02*
D03*
X2378Y2217D02*
D03*
X2327D02*
D03*
X2276D02*
D03*
X2378Y2264D02*
D03*
X2327D02*
D03*
X2276D02*
D03*
Y2646D02*
D03*
X2327D02*
D03*
X2378D02*
D03*
X2276Y2598D02*
D03*
X2327D02*
D03*
X2378D02*
D03*
X2276Y2551D02*
D03*
X2327D02*
D03*
X2378D02*
D03*
Y2504D02*
D03*
X2327D02*
D03*
X2276D02*
D03*
Y2453D02*
D03*
X2327D02*
D03*
X2378D02*
D03*
X2276Y2406D02*
D03*
X2327D02*
D03*
X2378D02*
D03*
X2276Y2358D02*
D03*
X2327D02*
D03*
X2378D02*
D03*
Y2311D02*
D03*
X2327D02*
D03*
X2276D02*
D03*
D32*
X2256Y3618D02*
D03*
X2217D02*
D03*
X2177D02*
D03*
X2138D02*
D03*
X2098D02*
D03*
X2059D02*
D03*
X2020D02*
D03*
X1980D02*
D03*
Y3402D02*
D03*
X2020D02*
D03*
X2059D02*
D03*
X2098D02*
D03*
X2138D02*
D03*
X2177D02*
D03*
X2217D02*
D03*
X2256D02*
D03*
Y3126D02*
D03*
X2217D02*
D03*
X2177D02*
D03*
X2138D02*
D03*
X2098D02*
D03*
X2059D02*
D03*
X2020D02*
D03*
X1980D02*
D03*
Y2909D02*
D03*
X2020D02*
D03*
X2059D02*
D03*
X2098D02*
D03*
X2138D02*
D03*
X2177D02*
D03*
X2217D02*
D03*
X2256D02*
D03*
X2650Y3866D02*
D03*
Y3827D02*
D03*
Y3787D02*
D03*
Y3748D02*
D03*
Y3709D02*
D03*
Y3669D02*
D03*
Y3630D02*
D03*
Y3591D02*
D03*
X2866D02*
D03*
Y3630D02*
D03*
Y3669D02*
D03*
Y3709D02*
D03*
Y3748D02*
D03*
Y3787D02*
D03*
Y3827D02*
D03*
Y3866D02*
D03*
X3142D02*
D03*
Y3827D02*
D03*
Y3787D02*
D03*
Y3748D02*
D03*
Y3709D02*
D03*
Y3669D02*
D03*
Y3630D02*
D03*
Y3591D02*
D03*
X3358D02*
D03*
Y3630D02*
D03*
Y3669D02*
D03*
Y3709D02*
D03*
Y3748D02*
D03*
Y3787D02*
D03*
Y3827D02*
D03*
Y3866D02*
D03*
X3323Y2496D02*
D03*
X3362D02*
D03*
X3402D02*
D03*
X3441D02*
D03*
X3480D02*
D03*
X3520D02*
D03*
X3559D02*
D03*
X3598D02*
D03*
Y2713D02*
D03*
X3559D02*
D03*
X3520D02*
D03*
X3480D02*
D03*
X3441D02*
D03*
X3402D02*
D03*
X3362D02*
D03*
X3323D02*
D03*
Y2988D02*
D03*
X3362D02*
D03*
X3402D02*
D03*
X3441D02*
D03*
X3480D02*
D03*
X3520D02*
D03*
X3559D02*
D03*
X3598D02*
D03*
Y3205D02*
D03*
X3559D02*
D03*
X3520D02*
D03*
X3480D02*
D03*
X3441D02*
D03*
X3402D02*
D03*
X3362D02*
D03*
X3323D02*
D03*
X2929Y2248D02*
D03*
Y2287D02*
D03*
Y2327D02*
D03*
Y2366D02*
D03*
Y2406D02*
D03*
Y2445D02*
D03*
Y2484D02*
D03*
Y2524D02*
D03*
X2713D02*
D03*
Y2484D02*
D03*
Y2445D02*
D03*
Y2406D02*
D03*
Y2366D02*
D03*
Y2327D02*
D03*
Y2287D02*
D03*
Y2248D02*
D03*
X2437D02*
D03*
Y2287D02*
D03*
Y2327D02*
D03*
Y2366D02*
D03*
Y2406D02*
D03*
Y2445D02*
D03*
Y2484D02*
D03*
Y2524D02*
D03*
X2220D02*
D03*
Y2484D02*
D03*
Y2445D02*
D03*
Y2406D02*
D03*
Y2366D02*
D03*
Y2327D02*
D03*
Y2287D02*
D03*
Y2248D02*
D03*
M02*
