M48
;Layer_Color=9474304
;FILE_FORMAT=2:3
INCH,LZ
;TYPE=PLATED
T1F00S00C0.020
T2F00S00C0.025
T3F00S00C0.035
T4F00S00C0.098
T5F00S00C0.125
%
T01
X03323Y02496
X03362
X03402
X03441
X0348
X0352
X03559
X03598
Y02713
X03559
X0352
X0348
X03441
X03402
X03362
X03323
Y02988
X03362
X03402
X03441
X0348
X0352
X03559
X03598
X02929Y02524
Y02484
Y02445
Y02406
Y02366
Y02327
Y02287
Y02248
X02713
Y02287
Y02327
Y02366
Y02406
Y02445
Y02484
Y02524
X02437
Y02484
Y02445
Y02406
Y02366
Y02327
Y02287
Y02248
X0222
Y02287
Y02327
Y02366
Y02406
Y02445
Y02484
Y02524
X02217Y02909
X02177
X02138
X02098
X02059
X0202
X0198
X02256
Y03126
X02217
X02177
X02138
X02098
X02059
X0202
X0198
Y03402
X0202
X02059
X02098
X02138
X02177
X02217
X02256
Y03618
X02217
X02177
X02138
X02098
X02059
X0202
X0198
X0265Y0363
Y03669
Y03709
Y03748
Y03787
Y03827
Y03866
X02866
Y03827
Y03787
Y03748
Y03709
Y03669
Y0363
Y03591
X0265
X03142
Y0363
Y03669
Y03709
Y03748
Y03787
Y03827
Y03866
X03358
Y03827
Y03787
Y03748
Y03709
Y03669
Y0363
Y03591
X03362Y03205
X03402
X03441
X0348
X0352
X03559
X03598
X03323
T02
X03197Y02555
X03244
X03291
X03339
X03386
X03433
X0348
X03528
X03579
X03626
X03673
X0372
Y02606
X03673
X03626
X03579
Y02657
X03626
X03673
X0372
X03528
X0348
X03433
X03386
X03339
X03291
X03244
X03197
Y02606
X03244
X03291
X03339
X03386
X03433
X0348
X03528
Y03047
X0348
X03433
X03386
X03339
X03291
X03244
X03197
Y03098
X03244
X03291
X03339
X03386
X03433
X0348
X03528
X03579
X03626
X03673
X0372
Y03047
X03673
X03626
X03579
X0287Y02646
Y02598
Y02551
Y02504
Y02453
Y02406
Y02358
Y02311
Y02264
Y02217
Y02169
Y02122
X02819
Y02169
Y02217
Y02264
Y02311
Y02358
Y02406
Y02453
Y02504
Y02551
Y02598
Y02646
X02768
Y02598
Y02551
Y02504
Y02453
Y02406
Y02358
Y02311
Y02264
Y02217
Y02169
Y02122
X02378
Y02169
Y02217
Y02264
Y02311
Y02358
Y02406
Y02453
Y02504
Y02551
Y02598
Y02646
X02327
Y02598
Y02551
Y02504
X02276
Y02551
Y02598
Y02646
Y02453
Y02406
Y02358
Y02311
Y02264
Y02217
Y02169
Y02122
X02327
Y02169
Y02217
Y02264
Y02311
Y02358
Y02406
Y02453
X02335Y02965
X02382
Y03016
X02335
X02287
X0224
X02193
X02146
X02098
X02051
X02
X01953
X01906
X01858
Y02965
X01906
X01953
X02
X02051
X02098
X02146
X02193
X0224
X02287
Y03067
X02335
X02382
X0224
X02193
X02146
X02098
X02051
X02
X01953
X01906
X01858
Y03457
X01906
X01953
X02
Y03508
X01953
X01906
X01858
Y03559
X01906
X01953
X02
X02051
X02098
X02146
X02193
X0224
X02287
X02335
X02382
Y03508
X02335
X02287
X0224
X02193
X02146
X02098
X02051
Y03457
X02098
X02146
X02193
X0224
X02287
X02335
X02382
X02709Y03469
Y03516
Y03563
Y0361
Y03661
Y03709
Y03756
Y03803
Y0385
Y03898
Y03945
Y03992
X0276
Y03945
Y03898
Y0385
Y03803
Y03756
Y03709
Y03661
Y0361
Y03563
Y03516
Y03469
X02811
Y03516
Y03563
Y0361
Y03661
Y03709
Y03756
Y03803
Y0385
Y03898
Y03945
Y03992
X03201
Y03945
Y03898
Y0385
Y03803
Y03756
Y03709
Y03661
Y0361
Y03563
Y03516
Y03469
X03252
Y03516
Y03563
Y0361
X03303
Y03563
Y03516
Y03469
Y03661
Y03709
Y03756
Y03803
Y0385
Y03898
Y03945
Y03992
X03252
Y03945
Y03898
Y0385
Y03803
Y03756
Y03709
Y03661
X03244Y0315
X03197
X03291
X03339
X03386
X03433
X0348
X03528
X03579
X03626
X03673
X0372
T03
X03197Y02197
X03276
X03354
Y02276
Y02354
X03276
Y02276
X03197
Y02354
X03118
Y02276
Y02197
X03087Y02829
Y02929
X01878Y02673
Y02594
Y02516
X02504Y03213
Y03313
X02539Y0374
Y03819
Y03898
X02488Y0398
X02409
X02331
X02252
X02173
X03535Y03646
Y03567
Y03488
Y03409
Y03331
X03618
Y03409
Y03488
Y03567
Y03646
X03701
Y03567
Y03488
Y03409
Y03331
T04
X02028Y02594
X02366Y03811
T05
X03583Y02272
X02008Y02273
X02008Y03839
X03583
M30
