G04 Layer_Color=128*
%FSLAX23Y23*%
%MOIN*%
G70*
G01*
G75*
%ADD22C,0.005*%
D22*
X3069Y2929D02*
X3104D01*
X3087Y2912D02*
Y2947D01*
X3069Y2829D02*
X3104D01*
X3087Y2812D02*
Y2847D01*
X2486Y3213D02*
X2521D01*
X2504Y3195D02*
Y3230D01*
X2486Y3313D02*
X2521D01*
X2504Y3295D02*
Y3330D01*
X1978Y2594D02*
X2077D01*
X2028Y2545D02*
Y2644D01*
X2317Y3811D02*
X2415D01*
X2366Y3762D02*
Y3860D01*
X3520Y2272D02*
X3645D01*
X3583Y2209D02*
Y2334D01*
X3520Y3839D02*
X3645D01*
X3583Y3776D02*
Y3901D01*
X1945Y3839D02*
X2070D01*
X2008Y3776D02*
Y3901D01*
X1945Y2273D02*
X2070D01*
X2008Y2210D02*
Y2335D01*
X1860Y2516D02*
X1895D01*
X1878Y2498D02*
Y2533D01*
X1860Y2594D02*
X1895D01*
X1878Y2577D02*
Y2612D01*
X1860Y2673D02*
X1895D01*
X1878Y2656D02*
Y2691D01*
X3518Y3646D02*
X3553D01*
X3535Y3628D02*
Y3663D01*
X3518Y3567D02*
X3553D01*
X3535Y3549D02*
Y3584D01*
X3518Y3488D02*
X3553D01*
X3535Y3471D02*
Y3506D01*
X3518Y3409D02*
X3553D01*
X3535Y3392D02*
Y3427D01*
X3518Y3331D02*
X3553D01*
X3535Y3313D02*
Y3348D01*
X3601Y3331D02*
X3636D01*
X3618Y3313D02*
Y3348D01*
X3601Y3409D02*
X3636D01*
X3618Y3392D02*
Y3427D01*
X3601Y3488D02*
X3636D01*
X3618Y3471D02*
Y3506D01*
X3601Y3567D02*
X3636D01*
X3618Y3549D02*
Y3584D01*
X3601Y3646D02*
X3636D01*
X3618Y3628D02*
Y3663D01*
X3683Y3331D02*
X3718D01*
X3701Y3313D02*
Y3348D01*
X3683Y3409D02*
X3718D01*
X3701Y3392D02*
Y3427D01*
X3683Y3488D02*
X3718D01*
X3701Y3471D02*
Y3506D01*
X3683Y3567D02*
X3718D01*
X3701Y3549D02*
Y3584D01*
X3683Y3646D02*
X3718D01*
X3701Y3628D02*
Y3663D01*
X3101Y2354D02*
X3136D01*
X3118Y2337D02*
Y2372D01*
X3179Y2354D02*
X3214D01*
X3197Y2337D02*
Y2372D01*
X3258Y2354D02*
X3293D01*
X3276Y2337D02*
Y2372D01*
X3337Y2354D02*
X3372D01*
X3354Y2337D02*
Y2372D01*
X3101Y2276D02*
X3136D01*
X3118Y2258D02*
Y2293D01*
X3179Y2276D02*
X3214D01*
X3197Y2258D02*
Y2293D01*
X3258Y2276D02*
X3293D01*
X3276Y2258D02*
Y2293D01*
X3337Y2276D02*
X3372D01*
X3354Y2258D02*
Y2293D01*
X3337Y2197D02*
X3372D01*
X3354Y2179D02*
Y2214D01*
X3258Y2197D02*
X3293D01*
X3276Y2179D02*
Y2214D01*
X3179Y2197D02*
X3214D01*
X3197Y2179D02*
Y2214D01*
X3101Y2197D02*
X3136D01*
X3118Y2179D02*
Y2214D01*
X2522Y3740D02*
X2557D01*
X2539Y3723D02*
Y3758D01*
X2522Y3819D02*
X2557D01*
X2539Y3801D02*
Y3836D01*
X2522Y3898D02*
X2557D01*
X2539Y3880D02*
Y3915D01*
X2471Y3980D02*
X2506D01*
X2488Y3963D02*
Y3998D01*
X2392Y3980D02*
X2427D01*
X2409Y3963D02*
Y3998D01*
X2313Y3980D02*
X2348D01*
X2331Y3963D02*
Y3998D01*
X2234Y3980D02*
X2269D01*
X2252Y3963D02*
Y3998D01*
X2156Y3980D02*
X2191D01*
X2173Y3963D02*
Y3998D01*
X2210Y2248D02*
X2230D01*
X2220Y2238D02*
Y2258D01*
X2210Y2287D02*
X2230D01*
X2220Y2277D02*
Y2297D01*
X2210Y2327D02*
X2230D01*
X2220Y2317D02*
Y2337D01*
X2210Y2366D02*
X2230D01*
X2220Y2356D02*
Y2376D01*
X2210Y2406D02*
X2230D01*
X2220Y2396D02*
Y2416D01*
X2210Y2445D02*
X2230D01*
X2220Y2435D02*
Y2455D01*
X2210Y2484D02*
X2230D01*
X2220Y2474D02*
Y2494D01*
X2210Y2524D02*
X2230D01*
X2220Y2514D02*
Y2534D01*
X2427Y2524D02*
X2447D01*
X2437Y2514D02*
Y2534D01*
X2427Y2484D02*
X2447D01*
X2437Y2474D02*
Y2494D01*
X2427Y2445D02*
X2447D01*
X2437Y2435D02*
Y2455D01*
X2427Y2406D02*
X2447D01*
X2437Y2396D02*
Y2416D01*
X2427Y2366D02*
X2447D01*
X2437Y2356D02*
Y2376D01*
X2427Y2327D02*
X2447D01*
X2437Y2317D02*
Y2337D01*
X2427Y2287D02*
X2447D01*
X2437Y2277D02*
Y2297D01*
X2427Y2248D02*
X2447D01*
X2437Y2238D02*
Y2258D01*
X2263Y2311D02*
X2288D01*
X2276Y2299D02*
Y2324D01*
X2314Y2311D02*
X2339D01*
X2327Y2299D02*
Y2324D01*
X2365Y2311D02*
X2390D01*
X2378Y2299D02*
Y2324D01*
X2365Y2358D02*
X2390D01*
X2378Y2346D02*
Y2371D01*
X2314Y2358D02*
X2339D01*
X2327Y2346D02*
Y2371D01*
X2263Y2358D02*
X2288D01*
X2276Y2346D02*
Y2371D01*
X2365Y2406D02*
X2390D01*
X2378Y2393D02*
Y2418D01*
X2314Y2406D02*
X2339D01*
X2327Y2393D02*
Y2418D01*
X2263Y2406D02*
X2288D01*
X2276Y2393D02*
Y2418D01*
X2365Y2453D02*
X2390D01*
X2378Y2440D02*
Y2465D01*
X2314Y2453D02*
X2339D01*
X2327Y2440D02*
Y2465D01*
X2263Y2453D02*
X2288D01*
X2276Y2440D02*
Y2465D01*
X2263Y2504D02*
X2288D01*
X2276Y2491D02*
Y2516D01*
X2314Y2504D02*
X2339D01*
X2327Y2491D02*
Y2516D01*
X2365Y2504D02*
X2390D01*
X2378Y2491D02*
Y2516D01*
X2365Y2551D02*
X2390D01*
X2378Y2539D02*
Y2564D01*
X2314Y2551D02*
X2339D01*
X2327Y2539D02*
Y2564D01*
X2263Y2551D02*
X2288D01*
X2276Y2539D02*
Y2564D01*
X2365Y2598D02*
X2390D01*
X2378Y2586D02*
Y2611D01*
X2314Y2598D02*
X2339D01*
X2327Y2586D02*
Y2611D01*
X2263Y2598D02*
X2288D01*
X2276Y2586D02*
Y2611D01*
X2365Y2646D02*
X2390D01*
X2378Y2633D02*
Y2658D01*
X2314Y2646D02*
X2339D01*
X2327Y2633D02*
Y2658D01*
X2263Y2646D02*
X2288D01*
X2276Y2633D02*
Y2658D01*
X2263Y2264D02*
X2288D01*
X2276Y2251D02*
Y2276D01*
X2314Y2264D02*
X2339D01*
X2327Y2251D02*
Y2276D01*
X2365Y2264D02*
X2390D01*
X2378Y2251D02*
Y2276D01*
X2263Y2217D02*
X2288D01*
X2276Y2204D02*
Y2229D01*
X2314Y2217D02*
X2339D01*
X2327Y2204D02*
Y2229D01*
X2365Y2217D02*
X2390D01*
X2378Y2204D02*
Y2229D01*
X2263Y2169D02*
X2288D01*
X2276Y2157D02*
Y2182D01*
X2314Y2169D02*
X2339D01*
X2327Y2157D02*
Y2182D01*
X2365Y2169D02*
X2390D01*
X2378Y2157D02*
Y2182D01*
X2365Y2122D02*
X2390D01*
X2378Y2110D02*
Y2135D01*
X2314Y2122D02*
X2339D01*
X2327Y2110D02*
Y2135D01*
X2263Y2122D02*
X2288D01*
X2276Y2110D02*
Y2135D01*
X2703Y2248D02*
X2723D01*
X2713Y2238D02*
Y2258D01*
X2703Y2287D02*
X2723D01*
X2713Y2277D02*
Y2297D01*
X2703Y2327D02*
X2723D01*
X2713Y2317D02*
Y2337D01*
X2703Y2366D02*
X2723D01*
X2713Y2356D02*
Y2376D01*
X2703Y2406D02*
X2723D01*
X2713Y2396D02*
Y2416D01*
X2703Y2445D02*
X2723D01*
X2713Y2435D02*
Y2455D01*
X2703Y2484D02*
X2723D01*
X2713Y2474D02*
Y2494D01*
X2703Y2524D02*
X2723D01*
X2713Y2514D02*
Y2534D01*
X2919Y2524D02*
X2939D01*
X2929Y2514D02*
Y2534D01*
X2919Y2484D02*
X2939D01*
X2929Y2474D02*
Y2494D01*
X2919Y2445D02*
X2939D01*
X2929Y2435D02*
Y2455D01*
X2919Y2406D02*
X2939D01*
X2929Y2396D02*
Y2416D01*
X2919Y2366D02*
X2939D01*
X2929Y2356D02*
Y2376D01*
X2919Y2327D02*
X2939D01*
X2929Y2317D02*
Y2337D01*
X2919Y2287D02*
X2939D01*
X2929Y2277D02*
Y2297D01*
X2919Y2248D02*
X2939D01*
X2929Y2238D02*
Y2258D01*
X2755Y2311D02*
X2780D01*
X2768Y2299D02*
Y2324D01*
X2806Y2311D02*
X2831D01*
X2819Y2299D02*
Y2324D01*
X2858Y2311D02*
X2883D01*
X2870Y2299D02*
Y2324D01*
X2858Y2358D02*
X2883D01*
X2870Y2346D02*
Y2371D01*
X2806Y2358D02*
X2831D01*
X2819Y2346D02*
Y2371D01*
X2755Y2358D02*
X2780D01*
X2768Y2346D02*
Y2371D01*
X2858Y2406D02*
X2883D01*
X2870Y2393D02*
Y2418D01*
X2806Y2406D02*
X2831D01*
X2819Y2393D02*
Y2418D01*
X2755Y2406D02*
X2780D01*
X2768Y2393D02*
Y2418D01*
X2858Y2453D02*
X2883D01*
X2870Y2440D02*
Y2465D01*
X2806Y2453D02*
X2831D01*
X2819Y2440D02*
Y2465D01*
X2755Y2453D02*
X2780D01*
X2768Y2440D02*
Y2465D01*
X2755Y2504D02*
X2780D01*
X2768Y2491D02*
Y2516D01*
X2806Y2504D02*
X2831D01*
X2819Y2491D02*
Y2516D01*
X2858Y2504D02*
X2883D01*
X2870Y2491D02*
Y2516D01*
X2858Y2551D02*
X2883D01*
X2870Y2539D02*
Y2564D01*
X2806Y2551D02*
X2831D01*
X2819Y2539D02*
Y2564D01*
X2755Y2551D02*
X2780D01*
X2768Y2539D02*
Y2564D01*
X2858Y2598D02*
X2883D01*
X2870Y2586D02*
Y2611D01*
X2806Y2598D02*
X2831D01*
X2819Y2586D02*
Y2611D01*
X2755Y2598D02*
X2780D01*
X2768Y2586D02*
Y2611D01*
X2858Y2646D02*
X2883D01*
X2870Y2633D02*
Y2658D01*
X2806Y2646D02*
X2831D01*
X2819Y2633D02*
Y2658D01*
X2755Y2646D02*
X2780D01*
X2768Y2633D02*
Y2658D01*
X2755Y2264D02*
X2780D01*
X2768Y2251D02*
Y2276D01*
X2806Y2264D02*
X2831D01*
X2819Y2251D02*
Y2276D01*
X2858Y2264D02*
X2883D01*
X2870Y2251D02*
Y2276D01*
X2755Y2217D02*
X2780D01*
X2768Y2204D02*
Y2229D01*
X2806Y2217D02*
X2831D01*
X2819Y2204D02*
Y2229D01*
X2858Y2217D02*
X2883D01*
X2870Y2204D02*
Y2229D01*
X2755Y2169D02*
X2780D01*
X2768Y2157D02*
Y2182D01*
X2806Y2169D02*
X2831D01*
X2819Y2157D02*
Y2182D01*
X2858Y2169D02*
X2883D01*
X2870Y2157D02*
Y2182D01*
X2858Y2122D02*
X2883D01*
X2870Y2110D02*
Y2135D01*
X2806Y2122D02*
X2831D01*
X2819Y2110D02*
Y2135D01*
X2755Y2122D02*
X2780D01*
X2768Y2110D02*
Y2135D01*
X3313Y3205D02*
X3333D01*
X3323Y3195D02*
Y3215D01*
X3352Y3205D02*
X3372D01*
X3362Y3195D02*
Y3215D01*
X3392Y3205D02*
X3412D01*
X3402Y3195D02*
Y3215D01*
X3431Y3205D02*
X3451D01*
X3441Y3195D02*
Y3215D01*
X3470Y3205D02*
X3490D01*
X3480Y3195D02*
Y3215D01*
X3510Y3205D02*
X3530D01*
X3520Y3195D02*
Y3215D01*
X3549Y3205D02*
X3569D01*
X3559Y3195D02*
Y3215D01*
X3588Y3205D02*
X3608D01*
X3598Y3195D02*
Y3215D01*
X3588Y2988D02*
X3608D01*
X3598Y2978D02*
Y2998D01*
X3549Y2988D02*
X3569D01*
X3559Y2978D02*
Y2998D01*
X3510Y2988D02*
X3530D01*
X3520Y2978D02*
Y2998D01*
X3470Y2988D02*
X3490D01*
X3480Y2978D02*
Y2998D01*
X3431Y2988D02*
X3451D01*
X3441Y2978D02*
Y2998D01*
X3392Y2988D02*
X3412D01*
X3402Y2978D02*
Y2998D01*
X3352Y2988D02*
X3372D01*
X3362Y2978D02*
Y2998D01*
X3313Y2988D02*
X3333D01*
X3323Y2978D02*
Y2998D01*
X3373Y3150D02*
X3398D01*
X3386Y3137D02*
Y3162D01*
X3373Y3098D02*
X3398D01*
X3386Y3086D02*
Y3111D01*
X3373Y3047D02*
X3398D01*
X3386Y3035D02*
Y3060D01*
X3421Y3047D02*
X3446D01*
X3433Y3035D02*
Y3060D01*
X3421Y3098D02*
X3446D01*
X3433Y3086D02*
Y3111D01*
X3421Y3150D02*
X3446D01*
X3433Y3137D02*
Y3162D01*
X3468Y3047D02*
X3493D01*
X3480Y3035D02*
Y3060D01*
X3468Y3098D02*
X3493D01*
X3480Y3086D02*
Y3111D01*
X3468Y3150D02*
X3493D01*
X3480Y3137D02*
Y3162D01*
X3515Y3047D02*
X3540D01*
X3528Y3035D02*
Y3060D01*
X3515Y3098D02*
X3540D01*
X3528Y3086D02*
Y3111D01*
X3515Y3150D02*
X3540D01*
X3528Y3137D02*
Y3162D01*
X3566Y3150D02*
X3591D01*
X3579Y3137D02*
Y3162D01*
X3566Y3098D02*
X3591D01*
X3579Y3086D02*
Y3111D01*
X3566Y3047D02*
X3591D01*
X3579Y3035D02*
Y3060D01*
X3613Y3047D02*
X3638D01*
X3626Y3035D02*
Y3060D01*
X3613Y3098D02*
X3638D01*
X3626Y3086D02*
Y3111D01*
X3613Y3150D02*
X3638D01*
X3626Y3137D02*
Y3162D01*
X3661Y3047D02*
X3686D01*
X3673Y3035D02*
Y3060D01*
X3661Y3098D02*
X3686D01*
X3673Y3086D02*
Y3111D01*
X3661Y3150D02*
X3686D01*
X3673Y3137D02*
Y3162D01*
X3708Y3047D02*
X3733D01*
X3720Y3035D02*
Y3060D01*
X3708Y3098D02*
X3733D01*
X3720Y3086D02*
Y3111D01*
X3708Y3150D02*
X3733D01*
X3720Y3137D02*
Y3162D01*
X3326Y3150D02*
X3351D01*
X3339Y3137D02*
Y3162D01*
X3326Y3098D02*
X3351D01*
X3339Y3086D02*
Y3111D01*
X3326Y3047D02*
X3351D01*
X3339Y3035D02*
Y3060D01*
X3279Y3150D02*
X3304D01*
X3291Y3137D02*
Y3162D01*
X3279Y3098D02*
X3304D01*
X3291Y3086D02*
Y3111D01*
X3279Y3047D02*
X3304D01*
X3291Y3035D02*
Y3060D01*
X3232Y3150D02*
X3257D01*
X3244Y3137D02*
Y3162D01*
X3232Y3098D02*
X3257D01*
X3244Y3086D02*
Y3111D01*
X3232Y3047D02*
X3257D01*
X3244Y3035D02*
Y3060D01*
X3184Y3047D02*
X3209D01*
X3197Y3035D02*
Y3060D01*
X3184Y3098D02*
X3209D01*
X3197Y3086D02*
Y3111D01*
X3184Y3150D02*
X3209D01*
X3197Y3137D02*
Y3162D01*
X3313Y2713D02*
X3333D01*
X3323Y2703D02*
Y2723D01*
X3352Y2713D02*
X3372D01*
X3362Y2703D02*
Y2723D01*
X3392Y2713D02*
X3412D01*
X3402Y2703D02*
Y2723D01*
X3431Y2713D02*
X3451D01*
X3441Y2703D02*
Y2723D01*
X3470Y2713D02*
X3490D01*
X3480Y2703D02*
Y2723D01*
X3510Y2713D02*
X3530D01*
X3520Y2703D02*
Y2723D01*
X3549Y2713D02*
X3569D01*
X3559Y2703D02*
Y2723D01*
X3588Y2713D02*
X3608D01*
X3598Y2703D02*
Y2723D01*
X3588Y2496D02*
X3608D01*
X3598Y2486D02*
Y2506D01*
X3549Y2496D02*
X3569D01*
X3559Y2486D02*
Y2506D01*
X3510Y2496D02*
X3530D01*
X3520Y2486D02*
Y2506D01*
X3470Y2496D02*
X3490D01*
X3480Y2486D02*
Y2506D01*
X3431Y2496D02*
X3451D01*
X3441Y2486D02*
Y2506D01*
X3392Y2496D02*
X3412D01*
X3402Y2486D02*
Y2506D01*
X3352Y2496D02*
X3372D01*
X3362Y2486D02*
Y2506D01*
X3313Y2496D02*
X3333D01*
X3323Y2486D02*
Y2506D01*
X3373Y2657D02*
X3398D01*
X3386Y2645D02*
Y2670D01*
X3373Y2606D02*
X3398D01*
X3386Y2594D02*
Y2619D01*
X3373Y2555D02*
X3398D01*
X3386Y2543D02*
Y2568D01*
X3421Y2555D02*
X3446D01*
X3433Y2543D02*
Y2568D01*
X3421Y2606D02*
X3446D01*
X3433Y2594D02*
Y2619D01*
X3421Y2657D02*
X3446D01*
X3433Y2645D02*
Y2670D01*
X3468Y2555D02*
X3493D01*
X3480Y2543D02*
Y2568D01*
X3468Y2606D02*
X3493D01*
X3480Y2594D02*
Y2619D01*
X3468Y2657D02*
X3493D01*
X3480Y2645D02*
Y2670D01*
X3515Y2555D02*
X3540D01*
X3528Y2543D02*
Y2568D01*
X3515Y2606D02*
X3540D01*
X3528Y2594D02*
Y2619D01*
X3515Y2657D02*
X3540D01*
X3528Y2645D02*
Y2670D01*
X3566Y2657D02*
X3591D01*
X3579Y2645D02*
Y2670D01*
X3566Y2606D02*
X3591D01*
X3579Y2594D02*
Y2619D01*
X3566Y2555D02*
X3591D01*
X3579Y2543D02*
Y2568D01*
X3613Y2555D02*
X3638D01*
X3626Y2543D02*
Y2568D01*
X3613Y2606D02*
X3638D01*
X3626Y2594D02*
Y2619D01*
X3613Y2657D02*
X3638D01*
X3626Y2645D02*
Y2670D01*
X3661Y2555D02*
X3686D01*
X3673Y2543D02*
Y2568D01*
X3661Y2606D02*
X3686D01*
X3673Y2594D02*
Y2619D01*
X3661Y2657D02*
X3686D01*
X3673Y2645D02*
Y2670D01*
X3708Y2555D02*
X3733D01*
X3720Y2543D02*
Y2568D01*
X3708Y2606D02*
X3733D01*
X3720Y2594D02*
Y2619D01*
X3708Y2657D02*
X3733D01*
X3720Y2645D02*
Y2670D01*
X3326Y2657D02*
X3351D01*
X3339Y2645D02*
Y2670D01*
X3326Y2606D02*
X3351D01*
X3339Y2594D02*
Y2619D01*
X3326Y2555D02*
X3351D01*
X3339Y2543D02*
Y2568D01*
X3279Y2657D02*
X3304D01*
X3291Y2645D02*
Y2670D01*
X3279Y2606D02*
X3304D01*
X3291Y2594D02*
Y2619D01*
X3279Y2555D02*
X3304D01*
X3291Y2543D02*
Y2568D01*
X3232Y2657D02*
X3257D01*
X3244Y2645D02*
Y2670D01*
X3232Y2606D02*
X3257D01*
X3244Y2594D02*
Y2619D01*
X3232Y2555D02*
X3257D01*
X3244Y2543D02*
Y2568D01*
X3184Y2555D02*
X3209D01*
X3197Y2543D02*
Y2568D01*
X3184Y2606D02*
X3209D01*
X3197Y2594D02*
Y2619D01*
X3184Y2657D02*
X3209D01*
X3197Y2645D02*
Y2670D01*
X3348Y3866D02*
X3368D01*
X3358Y3856D02*
Y3876D01*
X3348Y3827D02*
X3368D01*
X3358Y3817D02*
Y3837D01*
X3348Y3787D02*
X3368D01*
X3358Y3777D02*
Y3797D01*
X3348Y3748D02*
X3368D01*
X3358Y3738D02*
Y3758D01*
X3348Y3709D02*
X3368D01*
X3358Y3699D02*
Y3719D01*
X3348Y3669D02*
X3368D01*
X3358Y3659D02*
Y3679D01*
X3348Y3630D02*
X3368D01*
X3358Y3620D02*
Y3640D01*
X3348Y3591D02*
X3368D01*
X3358Y3581D02*
Y3601D01*
X3132Y3591D02*
X3152D01*
X3142Y3581D02*
Y3601D01*
X3132Y3630D02*
X3152D01*
X3142Y3620D02*
Y3640D01*
X3132Y3669D02*
X3152D01*
X3142Y3659D02*
Y3679D01*
X3132Y3709D02*
X3152D01*
X3142Y3699D02*
Y3719D01*
X3132Y3748D02*
X3152D01*
X3142Y3738D02*
Y3758D01*
X3132Y3787D02*
X3152D01*
X3142Y3777D02*
Y3797D01*
X3132Y3827D02*
X3152D01*
X3142Y3817D02*
Y3837D01*
X3132Y3866D02*
X3152D01*
X3142Y3856D02*
Y3876D01*
X3291Y3803D02*
X3316D01*
X3303Y3791D02*
Y3816D01*
X3239Y3803D02*
X3264D01*
X3252Y3791D02*
Y3816D01*
X3188Y3803D02*
X3213D01*
X3201Y3791D02*
Y3816D01*
X3188Y3756D02*
X3213D01*
X3201Y3743D02*
Y3768D01*
X3239Y3756D02*
X3264D01*
X3252Y3743D02*
Y3768D01*
X3291Y3756D02*
X3316D01*
X3303Y3743D02*
Y3768D01*
X3188Y3709D02*
X3213D01*
X3201Y3696D02*
Y3721D01*
X3239Y3709D02*
X3264D01*
X3252Y3696D02*
Y3721D01*
X3291Y3709D02*
X3316D01*
X3303Y3696D02*
Y3721D01*
X3188Y3661D02*
X3213D01*
X3201Y3649D02*
Y3674D01*
X3239Y3661D02*
X3264D01*
X3252Y3649D02*
Y3674D01*
X3291Y3661D02*
X3316D01*
X3303Y3649D02*
Y3674D01*
X3291Y3610D02*
X3316D01*
X3303Y3598D02*
Y3623D01*
X3239Y3610D02*
X3264D01*
X3252Y3598D02*
Y3623D01*
X3188Y3610D02*
X3213D01*
X3201Y3598D02*
Y3623D01*
X3188Y3563D02*
X3213D01*
X3201Y3550D02*
Y3575D01*
X3239Y3563D02*
X3264D01*
X3252Y3550D02*
Y3575D01*
X3291Y3563D02*
X3316D01*
X3303Y3550D02*
Y3575D01*
X3188Y3516D02*
X3213D01*
X3201Y3503D02*
Y3528D01*
X3239Y3516D02*
X3264D01*
X3252Y3503D02*
Y3528D01*
X3291Y3516D02*
X3316D01*
X3303Y3503D02*
Y3528D01*
X3188Y3469D02*
X3213D01*
X3201Y3456D02*
Y3481D01*
X3239Y3469D02*
X3264D01*
X3252Y3456D02*
Y3481D01*
X3291Y3469D02*
X3316D01*
X3303Y3456D02*
Y3481D01*
X3291Y3850D02*
X3316D01*
X3303Y3838D02*
Y3863D01*
X3239Y3850D02*
X3264D01*
X3252Y3838D02*
Y3863D01*
X3188Y3850D02*
X3213D01*
X3201Y3838D02*
Y3863D01*
X3291Y3898D02*
X3316D01*
X3303Y3885D02*
Y3910D01*
X3239Y3898D02*
X3264D01*
X3252Y3885D02*
Y3910D01*
X3188Y3898D02*
X3213D01*
X3201Y3885D02*
Y3910D01*
X3291Y3945D02*
X3316D01*
X3303Y3932D02*
Y3957D01*
X3239Y3945D02*
X3264D01*
X3252Y3932D02*
Y3957D01*
X3188Y3945D02*
X3213D01*
X3201Y3932D02*
Y3957D01*
X3188Y3992D02*
X3213D01*
X3201Y3980D02*
Y4005D01*
X3239Y3992D02*
X3264D01*
X3252Y3980D02*
Y4005D01*
X3291Y3992D02*
X3316D01*
X3303Y3980D02*
Y4005D01*
X2856Y3866D02*
X2876D01*
X2866Y3856D02*
Y3876D01*
X2856Y3827D02*
X2876D01*
X2866Y3817D02*
Y3837D01*
X2856Y3787D02*
X2876D01*
X2866Y3777D02*
Y3797D01*
X2856Y3748D02*
X2876D01*
X2866Y3738D02*
Y3758D01*
X2856Y3709D02*
X2876D01*
X2866Y3699D02*
Y3719D01*
X2856Y3669D02*
X2876D01*
X2866Y3659D02*
Y3679D01*
X2856Y3630D02*
X2876D01*
X2866Y3620D02*
Y3640D01*
X2856Y3591D02*
X2876D01*
X2866Y3581D02*
Y3601D01*
X2640Y3591D02*
X2660D01*
X2650Y3581D02*
Y3601D01*
X2640Y3630D02*
X2660D01*
X2650Y3620D02*
Y3640D01*
X2640Y3669D02*
X2660D01*
X2650Y3659D02*
Y3679D01*
X2640Y3709D02*
X2660D01*
X2650Y3699D02*
Y3719D01*
X2640Y3748D02*
X2660D01*
X2650Y3738D02*
Y3758D01*
X2640Y3787D02*
X2660D01*
X2650Y3777D02*
Y3797D01*
X2640Y3827D02*
X2660D01*
X2650Y3817D02*
Y3837D01*
X2640Y3866D02*
X2660D01*
X2650Y3856D02*
Y3876D01*
X2799Y3803D02*
X2824D01*
X2811Y3791D02*
Y3816D01*
X2747Y3803D02*
X2772D01*
X2760Y3791D02*
Y3816D01*
X2696Y3803D02*
X2721D01*
X2709Y3791D02*
Y3816D01*
X2696Y3756D02*
X2721D01*
X2709Y3743D02*
Y3768D01*
X2747Y3756D02*
X2772D01*
X2760Y3743D02*
Y3768D01*
X2799Y3756D02*
X2824D01*
X2811Y3743D02*
Y3768D01*
X2696Y3709D02*
X2721D01*
X2709Y3696D02*
Y3721D01*
X2747Y3709D02*
X2772D01*
X2760Y3696D02*
Y3721D01*
X2799Y3709D02*
X2824D01*
X2811Y3696D02*
Y3721D01*
X2696Y3661D02*
X2721D01*
X2709Y3649D02*
Y3674D01*
X2747Y3661D02*
X2772D01*
X2760Y3649D02*
Y3674D01*
X2799Y3661D02*
X2824D01*
X2811Y3649D02*
Y3674D01*
X2799Y3610D02*
X2824D01*
X2811Y3598D02*
Y3623D01*
X2747Y3610D02*
X2772D01*
X2760Y3598D02*
Y3623D01*
X2696Y3610D02*
X2721D01*
X2709Y3598D02*
Y3623D01*
X2696Y3563D02*
X2721D01*
X2709Y3550D02*
Y3575D01*
X2747Y3563D02*
X2772D01*
X2760Y3550D02*
Y3575D01*
X2799Y3563D02*
X2824D01*
X2811Y3550D02*
Y3575D01*
X2696Y3516D02*
X2721D01*
X2709Y3503D02*
Y3528D01*
X2747Y3516D02*
X2772D01*
X2760Y3503D02*
Y3528D01*
X2799Y3516D02*
X2824D01*
X2811Y3503D02*
Y3528D01*
X2696Y3469D02*
X2721D01*
X2709Y3456D02*
Y3481D01*
X2747Y3469D02*
X2772D01*
X2760Y3456D02*
Y3481D01*
X2799Y3469D02*
X2824D01*
X2811Y3456D02*
Y3481D01*
X2799Y3850D02*
X2824D01*
X2811Y3838D02*
Y3863D01*
X2747Y3850D02*
X2772D01*
X2760Y3838D02*
Y3863D01*
X2696Y3850D02*
X2721D01*
X2709Y3838D02*
Y3863D01*
X2799Y3898D02*
X2824D01*
X2811Y3885D02*
Y3910D01*
X2747Y3898D02*
X2772D01*
X2760Y3885D02*
Y3910D01*
X2696Y3898D02*
X2721D01*
X2709Y3885D02*
Y3910D01*
X2799Y3945D02*
X2824D01*
X2811Y3932D02*
Y3957D01*
X2747Y3945D02*
X2772D01*
X2760Y3932D02*
Y3957D01*
X2696Y3945D02*
X2721D01*
X2709Y3932D02*
Y3957D01*
X2696Y3992D02*
X2721D01*
X2709Y3980D02*
Y4005D01*
X2747Y3992D02*
X2772D01*
X2760Y3980D02*
Y4005D01*
X2799Y3992D02*
X2824D01*
X2811Y3980D02*
Y4005D01*
X2246Y2909D02*
X2266D01*
X2256Y2899D02*
Y2919D01*
X2207Y2909D02*
X2227D01*
X2217Y2899D02*
Y2919D01*
X2167Y2909D02*
X2187D01*
X2177Y2899D02*
Y2919D01*
X2128Y2909D02*
X2148D01*
X2138Y2899D02*
Y2919D01*
X2088Y2909D02*
X2108D01*
X2098Y2899D02*
Y2919D01*
X2049Y2909D02*
X2069D01*
X2059Y2899D02*
Y2919D01*
X2010Y2909D02*
X2030D01*
X2020Y2899D02*
Y2919D01*
X1970Y2909D02*
X1990D01*
X1980Y2899D02*
Y2919D01*
X1970Y3126D02*
X1990D01*
X1980Y3116D02*
Y3136D01*
X2010Y3126D02*
X2030D01*
X2020Y3116D02*
Y3136D01*
X2049Y3126D02*
X2069D01*
X2059Y3116D02*
Y3136D01*
X2088Y3126D02*
X2108D01*
X2098Y3116D02*
Y3136D01*
X2128Y3126D02*
X2148D01*
X2138Y3116D02*
Y3136D01*
X2167Y3126D02*
X2187D01*
X2177Y3116D02*
Y3136D01*
X2207Y3126D02*
X2227D01*
X2217Y3116D02*
Y3136D01*
X2246Y3126D02*
X2266D01*
X2256Y3116D02*
Y3136D01*
X2180Y2965D02*
X2205D01*
X2193Y2952D02*
Y2977D01*
X2180Y3016D02*
X2205D01*
X2193Y3003D02*
Y3028D01*
X2180Y3067D02*
X2205D01*
X2193Y3054D02*
Y3079D01*
X2133Y3067D02*
X2158D01*
X2146Y3054D02*
Y3079D01*
X2133Y3016D02*
X2158D01*
X2146Y3003D02*
Y3028D01*
X2133Y2965D02*
X2158D01*
X2146Y2952D02*
Y2977D01*
X2086Y3067D02*
X2111D01*
X2098Y3054D02*
Y3079D01*
X2086Y3016D02*
X2111D01*
X2098Y3003D02*
Y3028D01*
X2086Y2965D02*
X2111D01*
X2098Y2952D02*
Y2977D01*
X2039Y3067D02*
X2064D01*
X2051Y3054D02*
Y3079D01*
X2039Y3016D02*
X2064D01*
X2051Y3003D02*
Y3028D01*
X2039Y2965D02*
X2064D01*
X2051Y2952D02*
Y2977D01*
X1987Y2965D02*
X2013D01*
X2000Y2952D02*
Y2977D01*
X1987Y3016D02*
X2013D01*
X2000Y3003D02*
Y3028D01*
X1987Y3067D02*
X2013D01*
X2000Y3054D02*
Y3079D01*
X1940Y3067D02*
X1965D01*
X1953Y3054D02*
Y3079D01*
X1940Y3016D02*
X1965D01*
X1953Y3003D02*
Y3028D01*
X1940Y2965D02*
X1965D01*
X1953Y2952D02*
Y2977D01*
X1893Y3067D02*
X1918D01*
X1906Y3054D02*
Y3079D01*
X1893Y3016D02*
X1918D01*
X1906Y3003D02*
Y3028D01*
X1893Y2965D02*
X1918D01*
X1906Y2952D02*
Y2977D01*
X1846Y3067D02*
X1871D01*
X1858Y3054D02*
Y3079D01*
X1846Y3016D02*
X1871D01*
X1858Y3003D02*
Y3028D01*
X1846Y2965D02*
X1871D01*
X1858Y2952D02*
Y2977D01*
X2228Y2965D02*
X2253D01*
X2240Y2952D02*
Y2977D01*
X2228Y3016D02*
X2253D01*
X2240Y3003D02*
Y3028D01*
X2228Y3067D02*
X2253D01*
X2240Y3054D02*
Y3079D01*
X2275Y2965D02*
X2300D01*
X2287Y2952D02*
Y2977D01*
X2275Y3016D02*
X2300D01*
X2287Y3003D02*
Y3028D01*
X2275Y3067D02*
X2300D01*
X2287Y3054D02*
Y3079D01*
X2322Y2965D02*
X2347D01*
X2335Y2952D02*
Y2977D01*
X2322Y3016D02*
X2347D01*
X2335Y3003D02*
Y3028D01*
X2322Y3067D02*
X2347D01*
X2335Y3054D02*
Y3079D01*
X2369Y3067D02*
X2394D01*
X2382Y3054D02*
Y3079D01*
X2369Y3016D02*
X2394D01*
X2382Y3003D02*
Y3028D01*
X2369Y2965D02*
X2394D01*
X2382Y2952D02*
Y2977D01*
X2246Y3402D02*
X2266D01*
X2256Y3392D02*
Y3412D01*
X2207Y3402D02*
X2227D01*
X2217Y3392D02*
Y3412D01*
X2167Y3402D02*
X2187D01*
X2177Y3392D02*
Y3412D01*
X2128Y3402D02*
X2148D01*
X2138Y3392D02*
Y3412D01*
X2088Y3402D02*
X2108D01*
X2098Y3392D02*
Y3412D01*
X2049Y3402D02*
X2069D01*
X2059Y3392D02*
Y3412D01*
X2010Y3402D02*
X2030D01*
X2020Y3392D02*
Y3412D01*
X1970Y3402D02*
X1990D01*
X1980Y3392D02*
Y3412D01*
X1970Y3618D02*
X1990D01*
X1980Y3608D02*
Y3628D01*
X2010Y3618D02*
X2030D01*
X2020Y3608D02*
Y3628D01*
X2049Y3618D02*
X2069D01*
X2059Y3608D02*
Y3628D01*
X2088Y3618D02*
X2108D01*
X2098Y3608D02*
Y3628D01*
X2128Y3618D02*
X2148D01*
X2138Y3608D02*
Y3628D01*
X2167Y3618D02*
X2187D01*
X2177Y3608D02*
Y3628D01*
X2207Y3618D02*
X2227D01*
X2217Y3608D02*
Y3628D01*
X2246Y3618D02*
X2266D01*
X2256Y3608D02*
Y3628D01*
X2180Y3457D02*
X2205D01*
X2193Y3444D02*
Y3469D01*
X2180Y3508D02*
X2205D01*
X2193Y3495D02*
Y3520D01*
X2180Y3559D02*
X2205D01*
X2193Y3547D02*
Y3572D01*
X2133Y3559D02*
X2158D01*
X2146Y3547D02*
Y3572D01*
X2133Y3508D02*
X2158D01*
X2146Y3495D02*
Y3520D01*
X2133Y3457D02*
X2158D01*
X2146Y3444D02*
Y3469D01*
X2086Y3559D02*
X2111D01*
X2098Y3547D02*
Y3572D01*
X2086Y3508D02*
X2111D01*
X2098Y3495D02*
Y3520D01*
X2086Y3457D02*
X2111D01*
X2098Y3444D02*
Y3469D01*
X2039Y3559D02*
X2064D01*
X2051Y3547D02*
Y3572D01*
X2039Y3508D02*
X2064D01*
X2051Y3495D02*
Y3520D01*
X2039Y3457D02*
X2064D01*
X2051Y3444D02*
Y3469D01*
X1987Y3457D02*
X2013D01*
X2000Y3444D02*
Y3469D01*
X1987Y3508D02*
X2013D01*
X2000Y3495D02*
Y3520D01*
X1987Y3559D02*
X2013D01*
X2000Y3547D02*
Y3572D01*
X1940Y3559D02*
X1965D01*
X1953Y3547D02*
Y3572D01*
X1940Y3508D02*
X1965D01*
X1953Y3495D02*
Y3520D01*
X1940Y3457D02*
X1965D01*
X1953Y3444D02*
Y3469D01*
X1893Y3559D02*
X1918D01*
X1906Y3547D02*
Y3572D01*
X1893Y3508D02*
X1918D01*
X1906Y3495D02*
Y3520D01*
X1893Y3457D02*
X1918D01*
X1906Y3444D02*
Y3469D01*
X1846Y3559D02*
X1871D01*
X1858Y3547D02*
Y3572D01*
X1846Y3508D02*
X1871D01*
X1858Y3495D02*
Y3520D01*
X1846Y3457D02*
X1871D01*
X1858Y3444D02*
Y3469D01*
X2228Y3457D02*
X2253D01*
X2240Y3444D02*
Y3469D01*
X2228Y3508D02*
X2253D01*
X2240Y3495D02*
Y3520D01*
X2228Y3559D02*
X2253D01*
X2240Y3547D02*
Y3572D01*
X2275Y3457D02*
X2300D01*
X2287Y3444D02*
Y3469D01*
X2275Y3508D02*
X2300D01*
X2287Y3495D02*
Y3520D01*
X2275Y3559D02*
X2300D01*
X2287Y3547D02*
Y3572D01*
X2322Y3457D02*
X2347D01*
X2335Y3444D02*
Y3469D01*
X2322Y3508D02*
X2347D01*
X2335Y3495D02*
Y3520D01*
X2322Y3559D02*
X2347D01*
X2335Y3547D02*
Y3572D01*
X2369Y3559D02*
X2394D01*
X2382Y3547D02*
Y3572D01*
X2369Y3508D02*
X2394D01*
X2382Y3495D02*
Y3520D01*
X2369Y3457D02*
X2394D01*
X2382Y3444D02*
Y3469D01*
M02*
