G04 Layer_Physical_Order=1*
G04 Layer_Color=255*
%FSLAX23Y23*%
%MOIN*%
G70*
G01*
G75*
%ADD10R,0.039X0.051*%
%ADD11C,0.010*%
%ADD12R,0.201X0.197*%
%ADD13C,0.079*%
%ADD14R,0.591X0.315*%
%ADD15R,0.315X0.591*%
%ADD16C,0.197*%
%ADD17C,0.065*%
%ADD18R,0.065X0.065*%
%ADD19C,0.025*%
%ADD20C,0.020*%
G36*
X3740Y3335D02*
X3744D01*
Y2784D01*
X3144D01*
Y2713D01*
X2589D01*
X2587Y2713D01*
X2585D01*
X2583Y2713D01*
X2583D01*
X2581Y2712D01*
X2581Y2712D01*
X2581Y2712D01*
X2576Y2710D01*
X2573Y2707D01*
X2570Y2704D01*
X2568Y2699D01*
X2568Y2699D01*
X2568Y2698D01*
X2567Y2697D01*
Y2697D01*
X2567Y2695D01*
Y2693D01*
X2566Y2691D01*
Y2107D01*
X1836Y2103D01*
X1833Y2107D01*
Y3331D01*
X2435D01*
Y3335D01*
X2452D01*
X2455Y3330D01*
X2453Y3326D01*
X2451Y3313D01*
X2453Y3299D01*
X2458Y3286D01*
X2466Y3275D01*
X2477Y3267D01*
X2490Y3261D01*
X2504Y3260D01*
X2518Y3261D01*
X2530Y3267D01*
X2541Y3275D01*
X2550Y3286D01*
X2555Y3299D01*
X2557Y3313D01*
X2555Y3326D01*
X2553Y3330D01*
X2556Y3335D01*
X2807D01*
Y3328D01*
X2949D01*
Y3335D01*
X2969D01*
Y3349D01*
X3004D01*
Y3335D01*
Y3328D01*
X3083D01*
Y3335D01*
Y3420D01*
X3004D01*
X3002Y3424D01*
Y4011D01*
X3007Y4012D01*
X3740D01*
Y3335D01*
D02*
G37*
G36*
Y2689D02*
Y2098D01*
X3740Y2098D01*
X2587D01*
Y2691D01*
X2587Y2693D01*
X2589Y2693D01*
X3737D01*
X3740Y2689D01*
D02*
G37*
G36*
X2980Y4014D02*
X2982Y4011D01*
Y3411D01*
X2949D01*
Y3431D01*
X2870D01*
Y3358D01*
X1836Y3358D01*
X1833Y3362D01*
Y4016D01*
X2979Y4016D01*
X2980Y4014D01*
D02*
G37*
%LPC*%
G36*
X2106Y2394D02*
X1906D01*
X1898Y2393D01*
X1891Y2388D01*
X1887Y2382D01*
X1885Y2374D01*
Y2177D01*
X1887Y2169D01*
X1891Y2163D01*
X1898Y2158D01*
X1906Y2157D01*
X2106D01*
X2114Y2158D01*
X2121Y2163D01*
X2125Y2169D01*
X2127Y2177D01*
Y2374D01*
X2125Y2382D01*
X2121Y2388D01*
X2114Y2393D01*
X2106Y2394D01*
D02*
G37*
G36*
X3681Y3961D02*
X3480D01*
X3473Y3960D01*
X3466Y3955D01*
X3461Y3949D01*
X3460Y3941D01*
Y3744D01*
X3461Y3736D01*
X3466Y3730D01*
X3473Y3725D01*
X3480Y3724D01*
X3681D01*
X3689Y3725D01*
X3696Y3730D01*
X3700Y3736D01*
X3701Y3744D01*
Y3941D01*
X3700Y3949D01*
X3696Y3955D01*
X3689Y3960D01*
X3681Y3961D01*
D02*
G37*
G36*
X3677Y2394D02*
X3476D01*
X3469Y2393D01*
X3462Y2388D01*
X3458Y2382D01*
X3456Y2374D01*
Y2177D01*
X3458Y2169D01*
X3462Y2163D01*
X3469Y2158D01*
X3476Y2157D01*
X3677D01*
X3685Y2158D01*
X3692Y2163D01*
X3696Y2169D01*
X3698Y2177D01*
Y2374D01*
X3696Y2382D01*
X3692Y2388D01*
X3685Y2393D01*
X3677Y2394D01*
D02*
G37*
G36*
X2110Y3957D02*
X1909D01*
X1902Y3956D01*
X1895Y3951D01*
X1891Y3945D01*
X1889Y3937D01*
Y3740D01*
X1891Y3732D01*
X1895Y3726D01*
X1902Y3721D01*
X1909Y3720D01*
X2110D01*
X2118Y3721D01*
X2125Y3726D01*
X2129Y3732D01*
X2131Y3740D01*
Y3937D01*
X2129Y3945D01*
X2125Y3951D01*
X2118Y3956D01*
X2110Y3957D01*
D02*
G37*
G36*
X3087Y2882D02*
X3073Y2880D01*
X3060Y2875D01*
X3049Y2867D01*
X3041Y2856D01*
X3035Y2843D01*
X3034Y2829D01*
X3035Y2815D01*
X3041Y2803D01*
X3049Y2792D01*
X3060Y2783D01*
X3073Y2778D01*
X3087Y2776D01*
X3100Y2778D01*
X3113Y2783D01*
X3124Y2792D01*
X3132Y2803D01*
X3138Y2815D01*
X3140Y2829D01*
X3138Y2843D01*
X3132Y2856D01*
X3124Y2867D01*
X3113Y2875D01*
X3100Y2880D01*
X3087Y2882D01*
D02*
G37*
%LPD*%
D10*
X2846Y3374D02*
D03*
X2909D02*
D03*
X3106D02*
D03*
X3043D02*
D03*
D11*
X2909D02*
X3043D01*
D12*
X3577Y2276D02*
D03*
X2006D02*
D03*
X2010Y3839D02*
D03*
X3581Y3843D02*
D03*
D13*
X2008Y2273D02*
D03*
X2008Y3839D02*
D03*
X3583D02*
D03*
X3583Y2272D02*
D03*
D14*
X2119Y3016D02*
D03*
Y3508D02*
D03*
X3459Y3098D02*
D03*
Y2606D02*
D03*
D15*
X3252Y3730D02*
D03*
X2760D02*
D03*
X2327Y2385D02*
D03*
X2819D02*
D03*
D16*
X2366Y3811D02*
D03*
X2028Y2594D02*
D03*
D17*
X2504Y3313D02*
D03*
X3087Y2829D02*
D03*
X2173Y3980D02*
D03*
X2252D02*
D03*
X2331D02*
D03*
X2409D02*
D03*
X2488D02*
D03*
X2539Y3898D02*
D03*
Y3819D02*
D03*
Y3740D02*
D03*
X3118Y2197D02*
D03*
X3197D02*
D03*
X3276D02*
D03*
X3354D02*
D03*
Y2276D02*
D03*
X3276D02*
D03*
X3197D02*
D03*
X3118D02*
D03*
X3354Y2354D02*
D03*
X3276D02*
D03*
X3197D02*
D03*
X3118D02*
D03*
X3701Y3646D02*
D03*
Y3567D02*
D03*
Y3488D02*
D03*
Y3409D02*
D03*
Y3331D02*
D03*
X3618Y3646D02*
D03*
Y3567D02*
D03*
Y3488D02*
D03*
Y3409D02*
D03*
Y3331D02*
D03*
X3535D02*
D03*
Y3409D02*
D03*
Y3488D02*
D03*
Y3567D02*
D03*
Y3646D02*
D03*
X1878Y2673D02*
D03*
Y2594D02*
D03*
Y2516D02*
D03*
D18*
X2504Y3213D02*
D03*
X3087Y2929D02*
D03*
D19*
X2382Y3457D02*
D03*
Y3508D02*
D03*
Y3559D02*
D03*
X2335D02*
D03*
Y3508D02*
D03*
Y3457D02*
D03*
X2287Y3559D02*
D03*
Y3508D02*
D03*
Y3457D02*
D03*
X2240Y3559D02*
D03*
Y3508D02*
D03*
Y3457D02*
D03*
X1858D02*
D03*
Y3508D02*
D03*
Y3559D02*
D03*
X1906Y3457D02*
D03*
Y3508D02*
D03*
Y3559D02*
D03*
X1953Y3457D02*
D03*
Y3508D02*
D03*
Y3559D02*
D03*
X2000D02*
D03*
Y3508D02*
D03*
Y3457D02*
D03*
X2051D02*
D03*
Y3508D02*
D03*
Y3559D02*
D03*
X2098Y3457D02*
D03*
Y3508D02*
D03*
Y3559D02*
D03*
X2146Y3457D02*
D03*
Y3508D02*
D03*
Y3559D02*
D03*
X2193D02*
D03*
Y3508D02*
D03*
Y3457D02*
D03*
X2382Y2965D02*
D03*
Y3016D02*
D03*
Y3067D02*
D03*
X2335D02*
D03*
Y3016D02*
D03*
Y2965D02*
D03*
X2287Y3067D02*
D03*
Y3016D02*
D03*
Y2965D02*
D03*
X2240Y3067D02*
D03*
Y3016D02*
D03*
Y2965D02*
D03*
X1858D02*
D03*
Y3016D02*
D03*
Y3067D02*
D03*
X1906Y2965D02*
D03*
Y3016D02*
D03*
Y3067D02*
D03*
X1953Y2965D02*
D03*
Y3016D02*
D03*
Y3067D02*
D03*
X2000D02*
D03*
Y3016D02*
D03*
Y2965D02*
D03*
X2051D02*
D03*
Y3016D02*
D03*
Y3067D02*
D03*
X2098Y2965D02*
D03*
Y3016D02*
D03*
Y3067D02*
D03*
X2146Y2965D02*
D03*
Y3016D02*
D03*
Y3067D02*
D03*
X2193D02*
D03*
Y3016D02*
D03*
Y2965D02*
D03*
X2811Y3992D02*
D03*
X2760D02*
D03*
X2709D02*
D03*
Y3945D02*
D03*
X2760D02*
D03*
X2811D02*
D03*
X2709Y3898D02*
D03*
X2760D02*
D03*
X2811D02*
D03*
X2709Y3850D02*
D03*
X2760D02*
D03*
X2811D02*
D03*
Y3469D02*
D03*
X2760D02*
D03*
X2709D02*
D03*
X2811Y3516D02*
D03*
X2760D02*
D03*
X2709D02*
D03*
X2811Y3563D02*
D03*
X2760D02*
D03*
X2709D02*
D03*
Y3610D02*
D03*
X2760D02*
D03*
X2811D02*
D03*
Y3661D02*
D03*
X2760D02*
D03*
X2709D02*
D03*
X2811Y3709D02*
D03*
X2760D02*
D03*
X2709D02*
D03*
X2811Y3756D02*
D03*
X2760D02*
D03*
X2709D02*
D03*
Y3803D02*
D03*
X2760D02*
D03*
X2811D02*
D03*
X3303Y3992D02*
D03*
X3252D02*
D03*
X3201D02*
D03*
Y3945D02*
D03*
X3252D02*
D03*
X3303D02*
D03*
X3201Y3898D02*
D03*
X3252D02*
D03*
X3303D02*
D03*
X3201Y3850D02*
D03*
X3252D02*
D03*
X3303D02*
D03*
Y3469D02*
D03*
X3252D02*
D03*
X3201D02*
D03*
X3303Y3516D02*
D03*
X3252D02*
D03*
X3201D02*
D03*
X3303Y3563D02*
D03*
X3252D02*
D03*
X3201D02*
D03*
Y3610D02*
D03*
X3252D02*
D03*
X3303D02*
D03*
Y3661D02*
D03*
X3252D02*
D03*
X3201D02*
D03*
X3303Y3709D02*
D03*
X3252D02*
D03*
X3201D02*
D03*
X3303Y3756D02*
D03*
X3252D02*
D03*
X3201D02*
D03*
Y3803D02*
D03*
X3252D02*
D03*
X3303D02*
D03*
X3197Y2657D02*
D03*
Y2606D02*
D03*
Y2555D02*
D03*
X3244D02*
D03*
Y2606D02*
D03*
Y2657D02*
D03*
X3291Y2555D02*
D03*
Y2606D02*
D03*
Y2657D02*
D03*
X3339Y2555D02*
D03*
Y2606D02*
D03*
Y2657D02*
D03*
X3720D02*
D03*
Y2606D02*
D03*
Y2555D02*
D03*
X3673Y2657D02*
D03*
Y2606D02*
D03*
Y2555D02*
D03*
X3626Y2657D02*
D03*
Y2606D02*
D03*
Y2555D02*
D03*
X3579D02*
D03*
Y2606D02*
D03*
Y2657D02*
D03*
X3528D02*
D03*
Y2606D02*
D03*
Y2555D02*
D03*
X3480Y2657D02*
D03*
Y2606D02*
D03*
Y2555D02*
D03*
X3433Y2657D02*
D03*
Y2606D02*
D03*
Y2555D02*
D03*
X3386D02*
D03*
Y2606D02*
D03*
Y2657D02*
D03*
X3197Y3150D02*
D03*
Y3098D02*
D03*
Y3047D02*
D03*
X3244D02*
D03*
Y3098D02*
D03*
Y3150D02*
D03*
X3291Y3047D02*
D03*
Y3098D02*
D03*
Y3150D02*
D03*
X3339Y3047D02*
D03*
Y3098D02*
D03*
Y3150D02*
D03*
X3720D02*
D03*
Y3098D02*
D03*
Y3047D02*
D03*
X3673Y3150D02*
D03*
Y3098D02*
D03*
Y3047D02*
D03*
X3626Y3150D02*
D03*
Y3098D02*
D03*
Y3047D02*
D03*
X3579D02*
D03*
Y3098D02*
D03*
Y3150D02*
D03*
X3528D02*
D03*
Y3098D02*
D03*
Y3047D02*
D03*
X3480Y3150D02*
D03*
Y3098D02*
D03*
Y3047D02*
D03*
X3433Y3150D02*
D03*
Y3098D02*
D03*
Y3047D02*
D03*
X3386D02*
D03*
Y3098D02*
D03*
Y3150D02*
D03*
X2768Y2122D02*
D03*
X2819D02*
D03*
X2870D02*
D03*
Y2169D02*
D03*
X2819D02*
D03*
X2768D02*
D03*
X2870Y2217D02*
D03*
X2819D02*
D03*
X2768D02*
D03*
X2870Y2264D02*
D03*
X2819D02*
D03*
X2768D02*
D03*
Y2646D02*
D03*
X2819D02*
D03*
X2870D02*
D03*
X2768Y2598D02*
D03*
X2819D02*
D03*
X2870D02*
D03*
X2768Y2551D02*
D03*
X2819D02*
D03*
X2870D02*
D03*
Y2504D02*
D03*
X2819D02*
D03*
X2768D02*
D03*
Y2453D02*
D03*
X2819D02*
D03*
X2870D02*
D03*
X2768Y2406D02*
D03*
X2819D02*
D03*
X2870D02*
D03*
X2768Y2358D02*
D03*
X2819D02*
D03*
X2870D02*
D03*
Y2311D02*
D03*
X2819D02*
D03*
X2768D02*
D03*
X2276Y2122D02*
D03*
X2327D02*
D03*
X2378D02*
D03*
Y2169D02*
D03*
X2327D02*
D03*
X2276D02*
D03*
X2378Y2217D02*
D03*
X2327D02*
D03*
X2276D02*
D03*
X2378Y2264D02*
D03*
X2327D02*
D03*
X2276D02*
D03*
Y2646D02*
D03*
X2327D02*
D03*
X2378D02*
D03*
X2276Y2598D02*
D03*
X2327D02*
D03*
X2378D02*
D03*
X2276Y2551D02*
D03*
X2327D02*
D03*
X2378D02*
D03*
Y2504D02*
D03*
X2327D02*
D03*
X2276D02*
D03*
Y2453D02*
D03*
X2327D02*
D03*
X2378D02*
D03*
X2276Y2406D02*
D03*
X2327D02*
D03*
X2378D02*
D03*
X2276Y2358D02*
D03*
X2327D02*
D03*
X2378D02*
D03*
Y2311D02*
D03*
X2327D02*
D03*
X2276D02*
D03*
D20*
X2256Y3618D02*
D03*
X2217D02*
D03*
X2177D02*
D03*
X2138D02*
D03*
X2098D02*
D03*
X2059D02*
D03*
X2020D02*
D03*
X1980D02*
D03*
Y3402D02*
D03*
X2020D02*
D03*
X2059D02*
D03*
X2098D02*
D03*
X2138D02*
D03*
X2177D02*
D03*
X2217D02*
D03*
X2256D02*
D03*
Y3126D02*
D03*
X2217D02*
D03*
X2177D02*
D03*
X2138D02*
D03*
X2098D02*
D03*
X2059D02*
D03*
X2020D02*
D03*
X1980D02*
D03*
Y2909D02*
D03*
X2020D02*
D03*
X2059D02*
D03*
X2098D02*
D03*
X2138D02*
D03*
X2177D02*
D03*
X2217D02*
D03*
X2256D02*
D03*
X2650Y3866D02*
D03*
Y3827D02*
D03*
Y3787D02*
D03*
Y3748D02*
D03*
Y3709D02*
D03*
Y3669D02*
D03*
Y3630D02*
D03*
Y3591D02*
D03*
X2866D02*
D03*
Y3630D02*
D03*
Y3669D02*
D03*
Y3709D02*
D03*
Y3748D02*
D03*
Y3787D02*
D03*
Y3827D02*
D03*
Y3866D02*
D03*
X3142D02*
D03*
Y3827D02*
D03*
Y3787D02*
D03*
Y3748D02*
D03*
Y3709D02*
D03*
Y3669D02*
D03*
Y3630D02*
D03*
Y3591D02*
D03*
X3358D02*
D03*
Y3630D02*
D03*
Y3669D02*
D03*
Y3709D02*
D03*
Y3748D02*
D03*
Y3787D02*
D03*
Y3827D02*
D03*
Y3866D02*
D03*
X3323Y2496D02*
D03*
X3362D02*
D03*
X3402D02*
D03*
X3441D02*
D03*
X3480D02*
D03*
X3520D02*
D03*
X3559D02*
D03*
X3598D02*
D03*
Y2713D02*
D03*
X3559D02*
D03*
X3520D02*
D03*
X3480D02*
D03*
X3441D02*
D03*
X3402D02*
D03*
X3362D02*
D03*
X3323D02*
D03*
Y2988D02*
D03*
X3362D02*
D03*
X3402D02*
D03*
X3441D02*
D03*
X3480D02*
D03*
X3520D02*
D03*
X3559D02*
D03*
X3598D02*
D03*
Y3205D02*
D03*
X3559D02*
D03*
X3520D02*
D03*
X3480D02*
D03*
X3441D02*
D03*
X3402D02*
D03*
X3362D02*
D03*
X3323D02*
D03*
X2929Y2248D02*
D03*
Y2287D02*
D03*
Y2327D02*
D03*
Y2366D02*
D03*
Y2406D02*
D03*
Y2445D02*
D03*
Y2484D02*
D03*
Y2524D02*
D03*
X2713D02*
D03*
Y2484D02*
D03*
Y2445D02*
D03*
Y2406D02*
D03*
Y2366D02*
D03*
Y2327D02*
D03*
Y2287D02*
D03*
Y2248D02*
D03*
X2437D02*
D03*
Y2287D02*
D03*
Y2327D02*
D03*
Y2366D02*
D03*
Y2406D02*
D03*
Y2445D02*
D03*
Y2484D02*
D03*
Y2524D02*
D03*
X2220D02*
D03*
Y2484D02*
D03*
Y2445D02*
D03*
Y2406D02*
D03*
Y2366D02*
D03*
Y2327D02*
D03*
Y2287D02*
D03*
Y2248D02*
D03*
M02*
