G04 Layer_Color=65535*
%FSLAX23Y23*%
%MOIN*%
G70*
G01*
G75*
%ADD11C,0.010*%
%ADD21C,0.008*%
%ADD22C,0.008*%
%ADD23C,0.005*%
D11*
X2052Y3292D02*
X2012D01*
Y3232D01*
X2052D01*
X2012Y3262D02*
X2032D01*
X2112Y3282D02*
X2102Y3292D01*
X2082D01*
X2072Y3282D01*
Y3272D01*
X2082Y3262D01*
X2102D01*
X2112Y3252D01*
Y3242D01*
X2102Y3232D01*
X2082D01*
X2072Y3242D01*
X2172Y3282D02*
X2162Y3292D01*
X2142D01*
X2132Y3282D01*
Y3242D01*
X2142Y3232D01*
X2162D01*
X2172Y3242D01*
X2192Y3232D02*
X2212D01*
X2202D01*
Y3292D01*
X2192Y3282D01*
X3036Y3803D02*
Y3843D01*
X2976D01*
Y3803D01*
X3006Y3843D02*
Y3823D01*
X3026Y3743D02*
X3036Y3753D01*
Y3773D01*
X3026Y3783D01*
X3016D01*
X3006Y3773D01*
Y3753D01*
X2996Y3743D01*
X2986D01*
X2976Y3753D01*
Y3773D01*
X2986Y3783D01*
X3026Y3683D02*
X3036Y3693D01*
Y3713D01*
X3026Y3723D01*
X2986D01*
X2976Y3713D01*
Y3693D01*
X2986Y3683D01*
X2976Y3623D02*
Y3663D01*
X3016Y3623D01*
X3026D01*
X3036Y3633D01*
Y3653D01*
X3026Y3663D01*
X3402Y2883D02*
X3362D01*
Y2823D01*
X3402D01*
X3362Y2853D02*
X3382D01*
X3462Y2873D02*
X3452Y2883D01*
X3432D01*
X3422Y2873D01*
Y2863D01*
X3432Y2853D01*
X3452D01*
X3462Y2843D01*
Y2833D01*
X3452Y2823D01*
X3432D01*
X3422Y2833D01*
X3522Y2873D02*
X3512Y2883D01*
X3492D01*
X3482Y2873D01*
Y2833D01*
X3492Y2823D01*
X3512D01*
X3522Y2833D01*
X3542Y2873D02*
X3552Y2883D01*
X3572D01*
X3582Y2873D01*
Y2863D01*
X3572Y2853D01*
X3562D01*
X3572D01*
X3582Y2843D01*
Y2833D01*
X3572Y2823D01*
X3552D01*
X3542Y2833D01*
X2603Y2476D02*
Y2516D01*
X2543D01*
Y2476D01*
X2573Y2516D02*
Y2496D01*
X2593Y2416D02*
X2603Y2426D01*
Y2446D01*
X2593Y2456D01*
X2583D01*
X2573Y2446D01*
Y2426D01*
X2563Y2416D01*
X2553D01*
X2543Y2426D01*
Y2446D01*
X2553Y2456D01*
X2593Y2356D02*
X2603Y2366D01*
Y2386D01*
X2593Y2396D01*
X2553D01*
X2543Y2386D01*
Y2366D01*
X2553Y2356D01*
X2543Y2306D02*
X2603D01*
X2573Y2336D01*
Y2296D01*
X2098Y2709D02*
Y2769D01*
X2128D01*
X2138Y2759D01*
Y2739D01*
X2128Y2729D01*
X2098D01*
X2158Y2769D02*
Y2709D01*
X2188D01*
X2198Y2719D01*
Y2759D01*
X2188Y2769D01*
X2158D01*
X2218D02*
Y2709D01*
X2248D01*
X2258Y2719D01*
Y2729D01*
X2248Y2739D01*
X2218D01*
X2248D01*
X2258Y2749D01*
Y2759D01*
X2248Y2769D01*
X2218D01*
X2378Y2719D02*
Y2759D01*
X2368Y2769D01*
X2348D01*
X2338Y2759D01*
Y2719D01*
X2348Y2709D01*
X2368D01*
X2358Y2729D02*
X2378Y2709D01*
X2368D02*
X2378Y2719D01*
X2398Y2749D02*
Y2719D01*
X2408Y2709D01*
X2438D01*
Y2749D01*
X2468D02*
X2488D01*
X2498Y2739D01*
Y2709D01*
X2468D01*
X2458Y2719D01*
X2468Y2729D01*
X2498D01*
X2558Y2769D02*
Y2709D01*
X2528D01*
X2518Y2719D01*
Y2739D01*
X2528Y2749D01*
X2558D01*
X2578D02*
Y2709D01*
Y2729D01*
X2588Y2739D01*
X2598Y2749D01*
X2608D01*
X2648Y2709D02*
X2668D01*
X2678Y2719D01*
Y2739D01*
X2668Y2749D01*
X2648D01*
X2638Y2739D01*
Y2719D01*
X2648Y2709D01*
X2708Y2759D02*
Y2749D01*
X2698D01*
X2718D01*
X2708D01*
Y2719D01*
X2718Y2709D01*
X2758D02*
X2778D01*
X2788Y2719D01*
Y2739D01*
X2778Y2749D01*
X2758D01*
X2748Y2739D01*
Y2719D01*
X2758Y2709D01*
X2808Y2749D02*
Y2709D01*
Y2729D01*
X2818Y2739D01*
X2828Y2749D01*
X2838D01*
X2102Y2456D02*
X2149D01*
X2126Y2480D02*
Y2433D01*
X3417Y3322D02*
X3464D01*
X3441Y3346D02*
Y3299D01*
X3433Y3622D02*
X3480D01*
X3456Y3645D02*
Y3598D01*
X2209Y2818D02*
X2255D01*
X2232Y2842D02*
Y2795D01*
X3024Y2456D02*
X3070D01*
X2528Y3622D02*
X2574D01*
X3422Y2354D02*
Y2401D01*
X2233Y3701D02*
Y3747D01*
D21*
X2454Y3163D02*
Y3363D01*
X2554D01*
X3137Y2779D02*
Y2979D01*
X3037Y2779D02*
Y2979D01*
X2878Y3352D02*
Y3396D01*
X3075Y3352D02*
Y3396D01*
X2554Y3163D02*
Y3363D01*
X2454Y3163D02*
X2554D01*
X3037Y2779D02*
X3137D01*
X3037Y2979D02*
X3137D01*
D22*
X2453Y3394D02*
Y3414D01*
X2463Y3424D01*
X2473Y3414D01*
Y3394D01*
Y3409D01*
X2453D01*
X2483Y3424D02*
Y3399D01*
X2488Y3394D01*
X2498D01*
X2503Y3399D01*
Y3424D01*
X2513D02*
X2533Y3394D01*
Y3424D02*
X2513Y3394D01*
X2563D02*
X2543D01*
X2563Y3414D01*
Y3419D01*
X2558Y3424D01*
X2548D01*
X2543Y3419D01*
X3043Y3004D02*
Y3024D01*
X3053Y3034D01*
X3063Y3024D01*
Y3004D01*
Y3019D01*
X3043D01*
X3073Y3034D02*
Y3009D01*
X3078Y3004D01*
X3088D01*
X3093Y3009D01*
Y3034D01*
X3103D02*
X3123Y3004D01*
Y3034D02*
X3103Y3004D01*
X3133D02*
X3143D01*
X3138D01*
Y3034D01*
X3133Y3029D01*
D23*
X2661Y3362D02*
Y3392D01*
X2676D01*
X2681Y3387D01*
Y3377D01*
X2676Y3372D01*
X2661D01*
X2671D02*
X2681Y3362D01*
X2691Y3357D02*
X2711D01*
X2721Y3392D02*
Y3362D01*
X2741D01*
X2771Y3392D02*
X2751D01*
Y3362D01*
X2771D01*
X2751Y3377D02*
X2761D01*
X2781Y3392D02*
Y3362D01*
X2796D01*
X2801Y3367D01*
Y3387D01*
X2796Y3392D01*
X2781D01*
X3142Y3362D02*
Y3392D01*
X3157D01*
X3162Y3387D01*
Y3377D01*
X3157Y3372D01*
X3142D01*
X3177Y3362D02*
X3187D01*
X3192Y3367D01*
Y3377D01*
X3187Y3382D01*
X3177D01*
X3172Y3377D01*
Y3367D01*
X3177Y3362D01*
X3202Y3382D02*
Y3367D01*
X3207Y3362D01*
X3212Y3367D01*
X3217Y3362D01*
X3222Y3367D01*
Y3382D01*
X3247Y3362D02*
X3237D01*
X3232Y3367D01*
Y3377D01*
X3237Y3382D01*
X3247D01*
X3252Y3377D01*
Y3372D01*
X3232D01*
X3262Y3382D02*
Y3362D01*
Y3372D01*
X3267Y3377D01*
X3272Y3382D01*
X3277D01*
X3337Y3392D02*
X3327D01*
X3322Y3387D01*
Y3367D01*
X3327Y3362D01*
X3337D01*
X3342Y3367D01*
Y3387D01*
X3337Y3392D01*
X3352Y3362D02*
Y3382D01*
X3367D01*
X3372Y3377D01*
Y3362D01*
M02*
